<?xml version="1.0" standalone="no"?>
<!DOCTYPE svg PUBLIC "-//W3C//DTD SVG 20010904//EN"
 "http://www.w3.org/TR/2001/REC-SVG-20010904/DTD/svg10.dtd">
<svg version="1.0" xmlns="http://www.w3.org/2000/svg"
 width="1347.000000pt" height="447.000000pt" viewBox="0 0 1347.000000 447.000000"
 preserveAspectRatio="xMidYMid meet">

<g transform="translate(0.000000,447.000000) scale(0.100000,-0.100000)"
fill="#ffffff" stroke="none">
<path d="M1622 4451 c-65 -22 -83 -38 -62 -51 12 -8 10 -10 -7 -10 -26 0 -30
12 -8 30 41 34 -14 41 -76 10 -22 -12 -42 -27 -46 -35 -3 -8 -12 -15 -19 -15
-12 0 -11 5 2 25 9 14 14 28 10 32 -11 11 -82 -16 -109 -41 -26 -24 -38 -54
-17 -41 6 3 10 1 10 -4 0 -6 -9 -11 -20 -11 -17 0 -19 5 -13 31 l6 31 -30 -16
c-36 -18 -83 -71 -83 -93 0 -12 -3 -13 -15 -3 -8 6 -19 9 -24 5 -17 -10 -43
-113 -35 -137 6 -20 5 -21 -9 -10 -13 11 -16 10 -22 -8 -9 -27 3 -99 21 -127
8 -13 10 -23 4 -23 -19 0 -10 -21 30 -64 l39 -43 -36 -17 c-52 -25 -116 -80
-160 -137 l-38 -50 -10 32 -11 31 -53 -48 c-29 -26 -74 -79 -100 -118 -75
-111 -72 -104 -86 -216 l-6 -54 53 50 c29 27 74 64 100 82 48 33 58 53 74 143
11 68 15 79 25 79 7 0 8 -17 3 -47 l-7 -47 44 34 c95 75 199 184 199 210 0 41
12 52 38 34 l23 -15 -28 -28 c-16 -15 -43 -46 -61 -69 -33 -42 -33 -42 -7 -32
15 6 42 10 61 10 48 0 130 55 114 76 -9 10 -5 10 19 -2 21 -10 51 -15 85 -12
30 1 52 -1 49 -6 -10 -15 21 -26 57 -20 47 7 90 24 90 35 0 5 5 9 12 9 6 0 2
-10 -10 -23 -12 -13 -22 -26 -22 -30 0 -11 62 -7 99 7 41 15 57 42 20 33 -22
-5 -22 -5 -7 7 10 7 15 16 12 19 -3 3 -1 14 5 24 9 15 10 14 11 -13 0 -35 20
-56 69 -73 38 -12 91 -15 91 -4 0 4 -10 17 -22 30 -12 13 -16 23 -10 23 7 0
12 -4 12 -9 0 -11 45 -28 91 -34 37 -5 65 4 56 19 -3 5 22 7 54 6 45 -3 67 1
87 14 24 15 25 16 13 1 -12 -15 -10 -17 24 -17 37 0 38 0 20 20 -10 11 -14 20
-8 20 6 0 22 -18 36 -39 25 -37 112 -100 123 -89 10 11 -11 35 -71 83 -34 28
-61 52 -59 54 2 2 32 -20 68 -49 36 -28 73 -50 82 -48 26 5 -28 64 -84 92 -44
22 -45 24 -24 35 18 9 22 9 22 -2 0 -7 21 -29 48 -48 l47 -34 -19 30 c-10 17
-30 45 -43 63 -14 18 -23 35 -20 38 8 8 87 -116 87 -136 0 -20 25 -50 41 -50
29 0 -14 97 -72 160 l-39 42 25 30 c31 37 31 48 3 49 l-23 0 22 9 c12 5 24 17
27 27 12 43 17 93 11 113 -6 18 -9 19 -22 8 -14 -11 -15 -10 -9 10 10 29 -20
131 -40 139 -9 3 -20 0 -25 -8 -7 -11 -9 -11 -9 3 0 23 -46 75 -83 94 l-30 16
6 -31 c6 -26 4 -31 -13 -31 -11 0 -20 5 -20 11 0 5 5 7 10 4 21 -13 9 17 -17
41 -27 25 -98 52 -109 41 -4 -4 1 -18 10 -32 12 -18 13 -25 4 -25 -7 0 -19 9
-26 20 -14 23 -73 50 -108 50 -27 0 -31 -12 -9 -30 22 -18 18 -30 -7 -30 -19
0 -20 2 -8 10 13 9 12 12 -5 25 -11 9 -42 22 -69 30 -58 17 -80 7 -52 -24 17
-19 17 -20 -3 -31 -15 -8 -27 -8 -42 0 -19 11 -20 13 -4 30 16 17 14 40 -3 40
-4 -1 -31 -9 -60 -19z m-166 -71 c0 -11 -4 -20 -8 -20 -10 0 -11 24 -1 33 9 9
9 10 9 -13z m524 -6 c0 -8 -4 -14 -8 -14 -4 0 -8 9 -8 19 0 11 4 17 8 15 4 -3
8 -12 8 -20z m-640 2 c0 -2 -7 -7 -16 -10 -8 -3 -12 -2 -9 4 6 10 25 14 25 6z
m245 -6 c-3 -5 -12 -10 -18 -10 -7 0 -6 4 3 10 19 12 23 12 15 0z m147 -1 l20
-11 -21 -19 c-21 -20 -21 -20 -42 0 -20 18 -20 20 -2 30 23 13 20 13 45 0z
m123 -7 c-3 -3 -11 0 -18 7 -9 10 -8 11 6 5 10 -3 15 -9 12 -12z m250 8 c3 -6
-1 -7 -9 -4 -18 7 -21 14 -7 14 6 0 13 -4 16 -10z m-598 -6 c-3 -3 -12 -4 -19
-1 -8 3 -5 6 6 6 11 1 17 -2 13 -5z m430 0 c-3 -3 -12 -4 -19 -1 -8 3 -5 6 6
6 11 1 17 -2 13 -5z m-299 -11 c-10 -2 -26 -2 -35 0 -10 3 -2 5 17 5 19 0 27
-2 18 -5z m192 -3 c0 -5 -14 -7 -32 -3 -46 8 -48 13 -5 13 21 0 37 -4 37 -10z
m-497 -7 c-18 -7 -16 -21 5 -26 9 -3 5 -4 -9 -4 -20 1 -25 5 -21 19 2 10 12
18 21 17 10 0 11 -2 4 -6z m92 -3 c-3 -5 -12 -10 -18 -10 -7 0 -6 4 3 10 19
12 23 12 15 0z m135 1 c0 -18 64 -31 150 -31 86 0 150 13 150 31 0 5 8 9 18 9
12 0 10 -5 -10 -18 -30 -18 -36 -31 -15 -34 15 -2 113 -8 183 -11 37 -1 50 -6
47 -15 -3 -7 9 -18 30 -27 20 -8 43 -29 56 -50 11 -19 26 -38 33 -40 32 -12
-3 -175 -37 -175 -17 0 -75 -75 -75 -97 0 -7 -5 -13 -11 -13 -6 0 -8 7 -5 15
3 8 9 22 13 31 5 14 2 16 -23 10 -33 -9 -93 -51 -101 -72 -3 -8 -10 -14 -16
-14 -6 0 -1 10 11 23 32 34 27 40 -25 33 -47 -6 -94 -38 -89 -60 2 -6 1 -8 -1
-3 -3 4 -10 4 -16 0 -7 -3 -2 5 11 19 12 13 22 27 22 30 0 3 -21 8 -47 11 -56
6 -104 -8 -96 -29 7 -18 3 -18 -34 1 -35 18 -123 31 -123 20 0 -5 9 -19 21
-31 15 -16 17 -23 7 -27 -8 -2 -23 2 -33 10 -19 14 -19 15 5 8 l25 -7 -24 25
c-15 17 -39 28 -68 33 -55 8 -63 1 -33 -31 13 -14 19 -25 13 -25 -6 0 -13 6
-16 14 -8 21 -68 63 -101 72 -25 6 -28 4 -23 -10 4 -9 10 -23 13 -31 3 -8 1
-15 -5 -15 -6 0 -11 6 -11 13 0 22 -58 97 -75 97 -34 0 -69 163 -37 175 7 2
22 21 33 40 13 21 36 42 56 50 21 9 33 20 30 28 -3 9 4 12 29 9 51 -6 87 5 80
25 -5 12 -3 13 6 5 29 -23 128 -26 128 -4 0 4 -12 15 -27 24 -21 13 -23 18
-10 18 9 0 17 -4 17 -9z m455 -9 c-3 -3 -11 0 -18 7 -9 10 -8 11 6 5 10 -3 15
-9 12 -12z m95 6 c0 -6 7 -20 17 -30 15 -17 15 -18 0 -18 -10 0 -16 6 -14 13
1 7 -8 11 -23 10 -14 -1 -18 0 -7 3 20 6 22 20 5 27 -8 3 -6 6 5 6 9 1 17 -4
17 -11z m110 -78 c0 -13 -5 -18 -15 -14 -11 5 -12 9 -2 20 16 18 17 17 17 -6z
m-1040 6 c0 -2 -7 -9 -15 -16 -13 -11 -14 -10 -9 4 5 14 24 23 24 12z m1090
-17 c0 -6 -4 -7 -10 -4 -5 3 -10 11 -10 16 0 6 5 7 10 4 6 -3 10 -11 10 -16z
m-1037 4 c-7 -2 -19 -2 -25 0 -7 3 -2 5 12 5 14 0 19 -2 13 -5z m7 -46 c0 -2
-10 -12 -22 -23 l-23 -19 19 23 c18 21 26 27 26 19z m965 -17 c10 -11 16 -20
13 -20 -3 0 -13 9 -23 20 -10 11 -16 20 -13 20 3 0 13 -9 23 -20z m105 -5 c0
-8 -2 -15 -4 -15 -2 0 -6 7 -10 15 -3 8 -1 15 4 15 6 0 10 -7 10 -15z m-26
-35 c-12 -12 -44 -3 -44 13 0 7 4 7 12 -1 18 -18 31 -15 23 6 -5 14 -4 15 6 5
9 -9 10 -16 3 -23z m-1118 5 c17 6 18 6 1 -5 -19 -12 -37 -6 -37 13 0 9 3 8 8
-1 5 -7 17 -10 28 -7z m-55 -32 c-8 -15 -10 -15 -11 -2 0 17 10 32 18 25 2 -3
-1 -13 -7 -23z m1209 -1 c0 -15 -2 -15 -10 -2 -13 20 -13 33 0 25 6 -3 10 -14
10 -23z m-1145 -2 c-10 -11 -21 -18 -23 -15 -3 3 3 12 14 20 27 20 30 18 9 -5z
m1095 -12 c0 -12 -6 -9 -26 13 -19 22 -19 22 4 8 12 -8 22 -17 22 -21z m-1143
-40 c-3 -8 -6 -5 -6 6 -1 11 2 17 5 13 3 -3 4 -12 1 -19z m-27 -19 c0 -11 -4
-18 -10 -14 -5 3 -7 12 -3 20 7 21 13 19 13 -6z m70 -29 c4 0 11 -8 14 -17 5
-13 1 -12 -17 5 -18 17 -23 30 -18 45 5 20 6 20 9 -5 2 -16 7 -28 12 -28z
m1163 35 c4 -8 2 -17 -3 -20 -6 -4 -10 3 -10 14 0 25 6 27 13 6z m-36 -42 c-3
-10 -5 -4 -5 12 0 17 2 24 5 18 2 -7 2 -21 0 -30z m-17 24 c0 -2 -12 -14 -27
-28 -24 -22 -23 -11 2 18 9 11 25 17 25 10z m-1153 -49 c-3 -7 -5 -2 -5 12 0
14 2 19 5 13 2 -7 2 -19 0 -25z m-6 -45 c13 -16 12 -17 -3 -4 -10 7 -18 15
-18 17 0 8 8 3 21 -13z m99 2 c0 -8 -4 -15 -10 -15 -5 0 -7 7 -4 15 4 8 8 15
10 15 2 0 4 -7 4 -15z m994 0 c3 -8 1 -15 -4 -15 -6 0 -10 7 -10 15 0 8 2 15
4 15 2 0 6 -7 10 -15z m106 11 c0 -2 -8 -10 -17 -17 -16 -13 -17 -12 -4 4 13
16 21 21 21 13z m-89 -39 c-10 -9 -11 -8 -5 6 3 10 9 15 12 12 3 -3 0 -11 -7
-18z m-1060 -4 c13 -16 12 -17 -3 -4 -10 7 -18 15 -18 17 0 8 8 3 21 -13z
m1019 13 c0 -2 -7 -7 -16 -10 -8 -3 -12 -2 -9 4 6 10 25 14 25 6z m80 -5 c0
-5 -7 -12 -16 -15 -14 -5 -15 -4 -4 9 14 17 20 19 20 6z m-966 -56 c-3 -7 5
-20 18 -29 12 -9 18 -16 13 -16 -6 0 -21 9 -34 19 -17 13 -20 20 -12 26 9 5 8
13 -6 28 -18 22 -18 22 4 4 12 -11 19 -25 17 -32z m-94 25 c0 -5 -8 -10 -17
-10 -15 0 -16 2 -3 10 19 12 20 12 20 0z m817 -15 c0 -8 -4 -12 -9 -9 -4 3 -8
0 -8 -5 0 -6 -5 -11 -12 -11 -6 0 -3 9 7 20 22 24 22 24 22 5z m90 -37 c-12
-10 -26 -18 -32 -18 -5 0 1 7 13 16 17 11 21 22 16 37 -6 22 -6 22 9 2 15 -18
14 -21 -6 -37z m120 46 c-3 -3 -12 -4 -19 -1 -8 3 -5 6 6 6 11 1 17 -2 13 -5z
m-352 -34 c-3 -5 -12 -10 -18 -10 -7 0 -6 4 3 10 19 12 23 12 15 0z m-450 -20
c-3 -5 -12 -10 -18 -10 -7 0 -6 4 3 10 19 12 23 12 15 0z m570 -8 c-3 -3 -11
0 -18 7 -9 10 -8 11 6 5 10 -3 15 -9 12 -12z m-980 -94 c-44 -46 -81 -85 -82
-87 -2 -2 -3 1 -3 7 0 12 144 162 156 162 4 0 -28 -37 -71 -82z m435 72 c8 -5
11 -10 5 -10 -5 0 -17 5 -25 10 -8 5 -10 10 -5 10 6 0 17 -5 25 -10z m520 0
c-8 -5 -19 -10 -25 -10 -5 0 -3 5 5 10 8 5 20 10 25 10 6 0 3 -5 -5 -10z
m-225 -20 c3 -6 -1 -7 -9 -4 -18 7 -21 14 -7 14 6 0 13 -4 16 -10z m-950 -229
c-53 -85 -81 -120 -54 -68 26 51 102 167 106 163 2 -2 -21 -45 -52 -95z"/>
<path d="M2440 3751 c0 -39 4 -52 23 -64 12 -8 34 -27 50 -42 15 -15 27 -25
27 -21 0 13 -32 70 -58 105 -14 18 -19 32 -12 29 17 -5 91 -129 87 -143 -3 -5
5 -28 16 -50 l20 -40 8 28 c14 51 -19 124 -88 199 -59 62 -73 62 -73 -1z"/>
<path d="M2153 3753 c-48 -6 -41 -27 23 -66 59 -37 143 -63 170 -53 27 10 -2
33 -49 38 -45 5 -144 45 -135 54 4 3 23 -3 45 -14 21 -11 49 -23 63 -27 20 -6
17 0 -20 33 -25 23 -49 41 -55 40 -5 -1 -25 -3 -42 -5z"/>
<path d="M1258 3703 c-21 -2 -38 -8 -38 -12 0 -4 -15 -5 -33 -3 -56 6 -111
-15 -202 -80 -77 -55 -118 -99 -104 -113 3 -2 32 9 64 24 79 37 108 46 104 32
-3 -7 -38 -26 -79 -44 -103 -45 -183 -98 -262 -175 -57 -54 -70 -74 -83 -121
-9 -31 -30 -91 -47 -133 -16 -43 -28 -85 -24 -93 10 -26 81 29 115 89 16 28
74 95 130 150 56 54 101 100 101 102 0 2 -30 -7 -67 -21 l-68 -25 40 36 c67
60 214 152 297 186 85 35 85 46 0 47 -56 1 -48 13 41 57 97 48 194 110 160
102 -5 -1 -25 -3 -45 -5z"/>
<path d="M2350 3700 c0 -43 76 -132 140 -165 28 -14 30 -14 30 3 0 10 -31 44
-70 77 -38 33 -70 63 -70 68 0 5 33 -20 73 -55 67 -61 117 -96 117 -83 0 11
-49 81 -71 102 -46 42 -149 78 -149 53z"/>
<path d="M1728 3623 c-42 -48 -29 -103 33 -132 43 -21 68 -19 50 3 -7 9 -7 16
0 23 6 6 11 27 12 46 2 64 -59 101 -95 60z m68 -37 c7 -30 -12 -68 -33 -64
-27 5 -38 33 -25 62 15 34 49 35 58 2z"/>
<path d="M1529 3618 c-1 -2 -7 -36 -13 -75 -10 -62 -10 -73 2 -73 8 0 16 9 19
20 6 23 34 26 63 8 10 -7 22 -10 25 -6 9 9 -66 128 -81 128 -8 0 -14 -1 -15
-2z m35 -64 c9 -22 8 -24 -9 -24 -8 0 -15 9 -15 20 0 24 15 27 24 4z"/>
<path d="M1867 3583 c-4 -21 -9 -53 -13 -70 -5 -26 -3 -33 8 -33 10 0 19 18
27 57 14 72 14 83 -3 83 -8 0 -16 -15 -19 -37z"/>
<path d="M2280 3610 c-22 -14 21 -54 103 -95 76 -38 162 -49 151 -20 -7 16
-41 30 -66 26 -19 -2 -154 57 -146 65 3 3 28 -6 55 -19 80 -41 105 -44 57 -8
-23 17 -45 38 -48 46 -6 17 -81 21 -106 5z"/>
<path d="M2637 3613 c-4 -3 -7 -25 -7 -48 0 -36 6 -47 50 -90 l51 -50 -15 36
c-8 20 -25 53 -37 73 -12 20 -19 39 -17 42 7 7 79 -133 76 -148 -3 -16 24 -88
33 -88 13 0 17 52 7 89 -12 45 -50 111 -90 156 -31 36 -39 40 -51 28z"/>
<path d="M1930 3543 c-11 -36 -19 -67 -18 -68 6 -4 72 -25 79 -25 20 0 7 20
-16 26 -29 7 -30 14 -11 77 13 44 12 57 -5 57 -5 0 -17 -30 -29 -67z"/>
<path d="M1407 3583 c-4 -3 -7 -29 -7 -57 l-1 -51 -35 38 c-25 27 -41 36 -54
32 -17 -6 -17 -9 8 -70 15 -36 33 -65 40 -65 16 0 15 19 -3 50 -25 43 -15 46
19 6 18 -21 38 -36 43 -33 6 4 9 28 7 54 l-4 48 21 -44 c14 -29 24 -40 31 -33
7 7 3 29 -13 71 -22 57 -36 71 -52 54z"/>
<path d="M601 3530 c-42 -54 -76 -132 -93 -218 -9 -43 -7 -74 7 -158 10 -57
21 -104 25 -104 21 0 82 211 100 345 29 210 27 218 -39 135z m-8 -152 c-13
-51 -26 -119 -30 -150 -3 -32 -10 -58 -15 -58 -4 0 -6 10 -4 23 3 12 8 40 11
62 12 75 47 215 54 215 4 0 -3 -42 -16 -92z"/>
<path d="M2045 3504 c-15 -36 -26 -66 -24 -67 2 -2 21 -10 41 -19 45 -21 61
-5 18 17 l-30 16 25 49 c29 58 29 56 11 63 -9 4 -22 -15 -41 -59z"/>
<path d="M2544 3507 c9 -47 50 -102 104 -142 37 -27 48 -31 50 -18 3 9 -27 46
-69 89 -41 41 -69 74 -63 74 6 0 43 -34 81 -75 64 -68 93 -89 93 -67 0 4 -13
29 -29 55 -32 49 -87 92 -140 107 l-33 9 6 -32z"/>
<path d="M1196 3481 c-6 -10 18 -138 27 -148 11 -10 25 7 21 25 -6 22 32 48
50 33 6 -5 18 -6 25 -2 9 6 -4 22 -47 55 -65 49 -68 51 -76 37z m53 -54 c6 -8
8 -17 4 -20 -11 -12 -21 -7 -26 13 -6 23 5 26 22 7z"/>
<path d="M2171 3443 c-44 -32 -58 -48 -50 -54 8 -4 19 -3 25 2 18 15 54 -11
54 -38 0 -36 18 -27 29 15 18 69 23 110 13 116 -5 3 -37 -15 -71 -41z m49 -10
c-1 -18 -19 -35 -29 -28 -9 5 -9 10 0 21 12 15 29 19 29 7z"/>
<path d="M1684 3439 c-7 -11 -54 -178 -54 -191 0 -5 34 -8 75 -8 41 0 75 3 75
8 0 13 -48 181 -55 192 -8 13 -32 13 -41 -1z"/>
<path d="M2460 3440 c-37 -23 149 -150 219 -150 53 0 27 40 -30 46 -34 4 -122
49 -141 72 -7 7 17 -2 53 -22 36 -20 69 -36 73 -36 4 0 -16 23 -43 50 -40 40
-57 50 -83 50 -18 0 -40 -5 -48 -10z"/>
<path d="M3672 2113 c2 -1042 6 -1317 16 -1321 9 -3 12 265 12 1317 0 1169 -2
1321 -15 1321 -13 0 -15 -150 -13 -1317z"/>
<path d="M2821 3379 c-14 -40 -14 -76 -1 -84 6 -4 22 -27 35 -53 l25 -47 -6
40 c-4 22 -12 59 -19 83 -7 23 -10 42 -5 42 13 0 41 -131 35 -161 -6 -28 8
-69 25 -69 34 0 12 153 -33 234 -28 51 -42 55 -56 15z"/>
<path d="M2718 3345 c-9 -9 10 -92 31 -132 10 -21 35 -54 55 -72 53 -51 47
-17 -15 86 -28 46 -49 86 -47 89 3 2 26 -32 52 -76 25 -44 53 -80 61 -80 18 0
19 9 4 47 -17 46 -60 102 -94 123 -35 22 -39 23 -47 15z"/>
<path d="M393 3312 c-10 -15 -36 -52 -58 -82 -23 -30 -51 -71 -63 -91 -22 -36
-75 -169 -68 -169 2 0 42 31 87 69 46 38 85 68 87 66 2 -2 -5 -35 -16 -74
l-20 -70 21 -106 21 -106 30 57 c16 31 51 78 76 105 l46 49 -17 70 c-10 39
-25 116 -33 171 -16 106 -24 123 -57 132 -14 4 -25 -2 -36 -21z m64 -248 c-3
-98 -9 -150 -17 -157 -10 -9 -12 -8 -7 5 3 10 9 80 13 158 4 77 9 140 12 140
3 0 2 -66 -1 -146z"/>
<path d="M1437 3303 c-14 -4 -18 -11 -14 -31 3 -14 0 -33 -6 -42 -14 -24 -2
-50 23 -50 17 0 30 -19 64 -92 71 -155 67 -148 60 -108 -4 19 -22 68 -40 109
-33 71 -43 101 -25 72 7 -11 15 -6 40 20 38 43 39 56 2 64 -20 4 -33 16 -41
36 -12 28 -24 32 -63 22z m55 -43 c9 -17 24 -30 33 -30 9 0 13 -5 10 -10 -3
-6 -18 -7 -32 -4 -23 6 -25 5 -20 -16 4 -17 3 -20 -6 -11 -6 6 -19 11 -29 11
-19 0 -24 15 -8 25 6 3 8 18 5 33 -5 26 -5 26 6 5 7 -13 16 -23 21 -23 11 0
10 7 -2 31 -17 31 4 21 22 -11z"/>
<path d="M1900 3281 c-8 -20 -21 -32 -41 -36 -27 -6 -41 -25 -19 -25 6 0 10
-6 10 -12 1 -7 10 -24 21 -37 17 -21 22 -22 30 -10 18 29 8 0 -25 -72 -19 -41
-32 -78 -29 -83 4 -5 25 32 49 82 34 73 47 92 64 92 26 0 37 26 22 51 -7 10
-9 26 -5 35 4 11 -1 22 -12 30 -30 22 -52 16 -65 -15z m30 -10 c-12 -24 -13
-31 -2 -31 5 0 14 10 20 23 11 21 11 21 6 -4 -3 -15 -1 -30 5 -33 17 -11 13
-26 -7 -26 -10 0 -23 -5 -29 -11 -9 -9 -10 -6 -6 11 5 21 3 22 -20 16 -14 -3
-29 -2 -32 4 -3 5 1 10 10 10 9 0 24 13 33 30 18 32 39 42 22 11z"/>
<path d="M2610 3272 c0 -18 60 -100 99 -135 46 -42 78 -57 119 -57 l27 0 -34
27 c-19 15 -41 28 -49 29 -8 2 -24 11 -36 22 -11 10 -36 32 -53 47 -18 16 -33
33 -33 38 0 5 25 -14 56 -42 31 -29 58 -50 61 -48 2 3 -7 22 -22 42 -14 21
-25 43 -25 50 0 15 -51 35 -86 35 -13 0 -24 -4 -24 -8z"/>
<path d="M1596 3214 c-19 -18 -21 -45 -4 -62 17 -17 25 -15 31 8 5 18 14 20
82 20 68 0 77 -2 82 -20 7 -25 19 -26 33 -1 14 27 13 37 -6 55 -12 12 -37 16
-109 16 -72 0 -97 -4 -109 -16z"/>
<path d="M1188 3194 c-28 -14 -35 -33 -20 -48 4 -4 7 -22 7 -39 0 -28 4 -32
28 -35 21 -3 37 -17 64 -58 20 -30 40 -54 44 -54 15 0 10 11 -28 64 -21 28
-30 45 -21 38 14 -11 18 -9 32 19 9 17 13 36 9 42 -3 6 -1 7 5 3 7 -4 10 -23
6 -49 -4 -36 1 -50 30 -97 20 -30 36 -47 36 -38 0 9 -14 38 -30 65 -27 44 -29
51 -18 80 14 38 -1 63 -40 63 -16 0 -35 11 -51 30 -25 28 -27 29 -53 14z m93
-64 c6 0 7 -5 4 -10 -4 -6 -10 -8 -15 -5 -16 10 -41 -6 -30 -19 7 -9 2 -11
-21 -8 -23 3 -28 8 -24 23 3 10 1 29 -6 41 -12 22 -11 22 8 6 27 -24 36 -22
22 4 -11 20 -9 20 20 -5 18 -15 37 -27 42 -27z"/>
<path d="M2158 3180 c-15 -20 -30 -30 -49 -30 -40 0 -56 -24 -41 -63 11 -29 9
-36 -18 -80 -16 -27 -30 -56 -30 -65 0 -9 16 8 35 38 25 39 35 64 32 86 -2 23
1 30 10 27 7 -3 13 -14 13 -24 0 -22 10 -24 30 -6 7 6 -3 -11 -23 -39 -20 -29
-37 -54 -37 -58 0 -9 45 -7 56 3 5 5 20 12 33 16 20 6 23 4 18 -9 -4 -9 -2
-16 3 -16 6 0 10 6 10 14 0 8 3 22 6 30 5 14 -1 13 -41 -4 -26 -11 -49 -20
-51 -20 -3 0 9 20 26 44 21 32 38 46 58 48 23 3 27 8 27 35 0 17 3 35 8 39 15
15 6 34 -23 49 -28 15 -30 14 -52 -15z m22 -20 c-13 -25 -3 -26 23 -2 19 16
20 16 8 -6 -7 -12 -9 -31 -6 -41 4 -15 -1 -20 -24 -23 -23 -3 -28 -1 -21 8 11
13 -14 29 -30 19 -5 -3 -11 -1 -14 4 -4 5 2 12 13 16 10 3 26 14 36 25 23 25
29 25 15 0z"/>
<path d="M2971 3186 c-26 -32 -24 -79 8 -136 25 -45 31 -50 31 -30 0 14 -6 49
-14 78 -7 29 -10 52 -5 52 12 0 29 -100 28 -173 -1 -76 6 -92 27 -63 27 37 11
164 -29 243 -21 40 -32 47 -46 29z"/>
<path d="M1548 3174 c-5 -4 -8 -21 -8 -38 0 -21 3 -27 11 -19 6 6 9 23 7 38
-2 15 -6 23 -10 19z"/>
<path d="M1360 3122 c0 -49 48 -180 57 -155 2 6 -5 30 -16 52 -12 22 -21 59
-21 81 l0 41 30 -22 c20 -16 36 -42 51 -86 11 -34 25 -66 31 -69 11 -7 7 10
-24 93 -12 32 -31 60 -51 75 -57 43 -57 43 -57 -10z"/>
<path d="M1637 3164 c-15 -16 -4 -19 68 -19 46 0 74 4 72 10 -4 12 -129 19
-140 9z"/>
<path d="M1843 3154 c-3 -8 -1 -20 6 -27 8 -8 11 -4 11 16 0 30 -7 35 -17 11z"/>
<path d="M1983 3139 c-31 -22 -46 -42 -61 -82 -31 -83 -35 -100 -24 -93 6 3
20 35 31 69 15 44 31 70 51 86 l30 22 0 -41 c0 -22 -9 -59 -21 -81 -11 -22
-18 -46 -16 -52 3 -7 17 14 31 47 20 43 26 71 24 106 l-3 48 -42 -29z"/>
<path d="M2855 3137 c-16 -40 36 -167 89 -216 23 -22 26 -22 26 -6 0 10 -21
56 -46 102 -25 47 -44 86 -41 89 2 2 19 -24 37 -58 18 -35 43 -77 56 -95 16
-21 20 -33 12 -35 -8 -3 -12 -29 -12 -74 0 -54 6 -81 28 -126 27 -56 46 -74
46 -42 0 8 -12 56 -26 105 -14 50 -24 92 -21 95 2 2 17 -40 32 -93 16 -54 34
-105 42 -113 11 -12 13 -6 13 37 0 61 -21 124 -57 171 -14 19 -27 50 -29 68
-3 39 -34 110 -61 139 -10 11 -33 31 -51 43 -25 19 -33 21 -37 9z"/>
<path d="M843 3124 c-7 -19 79 -137 89 -122 4 7 5 22 2 34 -6 22 10 40 39 45
39 8 19 24 -51 40 -60 13 -75 14 -79 3z m77 -39 c0 -8 -4 -15 -9 -15 -5 0 -14
7 -21 15 -10 13 -9 15 9 15 12 0 21 -6 21 -15z"/>
<path d="M1670 3137 c-3 -3 -23 -8 -45 -11 -51 -8 -55 -14 -38 -54 11 -27 17
-32 31 -26 21 11 152 11 173 1 11 -6 19 1 32 27 9 20 13 37 8 40 -18 12 -153
31 -161 23z"/>
<path d="M2498 3123 c-42 -11 -55 -19 -51 -29 3 -9 12 -13 21 -9 20 7 42 -25
36 -51 -11 -44 14 -32 55 27 58 82 49 91 -61 62z m47 -33 c-14 -16 -20 -17
-26 -8 -5 8 -2 16 9 20 30 12 35 8 17 -12z"/>
<path d="M2750 3068 c0 -48 140 -198 185 -198 14 0 25 4 25 8 0 11 -34 42 -46
42 -14 0 -103 80 -115 103 -6 12 13 -2 43 -30 59 -58 80 -69 50 -25 -11 15
-23 37 -26 50 -9 27 -39 48 -83 57 -25 5 -33 3 -33 -7z"/>
<path d="M695 3035 c-180 -89 -305 -249 -305 -388 l1 -62 36 73 c21 42 60 98
90 129 29 31 53 60 53 65 0 5 43 54 97 109 53 54 92 99 87 99 -5 0 -31 -11
-59 -25z"/>
<path d="M2578 3021 c-57 -33 -62 -37 -53 -51 4 -7 17 -4 39 10 49 29 54 25
17 -14 -41 -43 -35 -56 21 -46 55 11 60 5 14 -16 -33 -16 -50 -44 -26 -44 14
0 120 60 120 68 -1 24 -18 30 -60 22 -25 -5 -47 -6 -49 -4 -3 2 10 19 28 37
21 22 29 39 25 50 -8 22 -19 20 -76 -12z"/>
<path d="M780 3028 c0 -7 14 -22 30 -33 39 -26 38 -36 -2 -24 -68 19 -77 3
-25 -43 24 -22 27 -28 12 -24 -71 18 -75 18 -75 4 0 -20 131 -52 142 -35 5 7
-4 22 -22 38 -39 33 -38 40 6 27 26 -7 40 -6 48 2 8 8 -2 22 -39 55 -51 45
-75 55 -75 33z"/>
<path d="M1651 3029 c-53 -10 -81 -33 -64 -50 9 -9 19 -9 42 0 26 12 81 11
171 -1 17 -2 25 2 25 12 0 32 -99 55 -174 39z"/>
<path d="M4172 3008 l3 -33 3055 0 3055 0 3 33 3 32 -3061 0 -3061 0 3 -32z"/>
<path d="M10732 3008 l3 -33 1360 0 1360 0 3 33 3 32 -1366 0 -1366 0 3 -32z"/>
<path d="M990 3005 c-20 -21 -21 -27 -9 -41 7 -9 13 -28 14 -42 0 -22 5 -27
27 -27 15 -1 36 -9 46 -18 19 -17 19 -17 20 28 1 25 -2 45 -6 45 -16 -1 -34
-19 -28 -29 5 -7 -2 -11 -19 -11 -21 0 -26 4 -21 16 4 10 -1 25 -10 35 -18 21
-6 27 14 7 17 -17 27 -1 11 19 -11 13 -7 13 16 -3 31 -22 105 -31 105 -14 0 6
-17 10 -39 10 -23 0 -44 6 -51 16 -27 32 -46 34 -70 9z"/>
<path d="M2353 3006 c-21 -18 -43 -26 -67 -26 -20 0 -36 -4 -36 -8 0 -15 79
-6 98 11 23 21 39 22 22 2 -16 -19 -5 -34 12 -17 7 7 16 12 21 12 5 0 1 -7 -8
-16 -9 -9 -13 -24 -10 -35 5 -16 1 -19 -27 -19 -25 0 -29 3 -18 10 13 9 13 11
0 20 -25 17 -29 12 -28 -35 1 -45 1 -45 20 -28 10 9 31 17 46 18 22 0 27 5 27
27 1 14 7 34 15 43 12 14 10 19 -12 41 l-25 25 -30 -25z"/>
<path d="M1184 3004 c3 -9 6 -22 6 -30 0 -8 5 -14 11 -14 6 0 8 7 5 16 -5 12
-1 14 17 8 12 -3 29 -13 38 -20 20 -18 30 -18 23 0 -3 8 -28 23 -56 35 -42 17
-49 18 -44 5z"/>
<path d="M292 2973 c-19 -67 -31 -146 -37 -248 -5 -87 -3 -107 16 -155 12 -30
32 -95 44 -145 25 -97 24 -98 46 29 14 81 7 260 -15 381 -8 44 -17 101 -21
128 -8 57 -18 60 -33 10z m37 -302 c1 -68 -1 -122 -3 -120 -2 2 -5 76 -8 164
-3 91 -2 143 3 120 4 -22 8 -96 8 -164z"/>
<path d="M10459 2973 c-15 -19 -50 -69 -63 -90 -5 -10 4 -13 36 -13 38 1 50 7
108 60 l65 59 -66 1 c-51 0 -69 -4 -80 -17z"/>
<path d="M1633 2970 c-27 -11 -22 -33 12 -48 19 -9 26 -7 41 9 17 19 18 19 39
-1 19 -18 23 -18 43 -4 28 20 28 40 0 48 -33 8 -109 6 -135 -4z"/>
<path d="M1110 2875 l0 -65 240 0 c201 0 239 2 234 14 -3 8 -1 17 5 21 16 9
13 25 -4 25 -8 0 -15 7 -15 15 0 8 -6 15 -14 15 -7 0 -16 9 -19 20 -3 11 -12
20 -21 20 -12 0 -16 -10 -16 -35 0 -24 -5 -35 -15 -35 -8 0 -15 7 -15 15 0 8
-7 15 -15 15 -9 0 -15 9 -15 21 0 36 -34 19 -38 -19 -3 -32 -32 -48 -32 -17 0
8 -7 15 -15 15 -8 0 -15 9 -15 20 0 11 -7 20 -15 20 -10 0 -15 -11 -15 -35 0
-28 -4 -35 -20 -35 -11 0 -20 6 -20 14 0 8 -7 16 -15 20 -8 3 -15 12 -15 21 0
8 -7 15 -15 15 -10 0 -15 -11 -15 -35 0 -21 -5 -35 -12 -35 -16 0 -58 44 -58
59 0 6 -7 11 -15 11 -12 0 -15 -14 -15 -65z"/>
<path d="M1863 2921 c-3 -12 -12 -21 -19 -21 -8 0 -14 -6 -14 -14 0 -8 -4 -16
-9 -18 -5 -1 -7 -15 -4 -30 l5 -28 234 0 234 0 0 65 c0 49 -3 65 -14 65 -7 0
-16 -9 -19 -21 -3 -12 -10 -18 -17 -14 -7 4 -14 -2 -17 -14 -9 -35 -33 -25
-33 14 0 39 -24 49 -33 14 -3 -12 -10 -18 -16 -14 -7 3 -11 -2 -11 -14 0 -14
-6 -21 -20 -21 -16 0 -20 7 -20 35 0 24 -5 35 -15 35 -8 0 -15 -9 -15 -20 0
-11 -7 -20 -15 -20 -8 0 -15 -7 -15 -16 0 -9 -7 -14 -17 -12 -12 2 -18 13 -18
33 -1 20 -6 31 -18 33 -12 2 -17 -3 -17 -17 0 -12 -6 -21 -15 -21 -8 0 -15 -7
-15 -15 0 -30 -29 -15 -32 17 -4 37 -27 50 -35 19z"/>
<path d="M3085 2900 c-17 -39 -17 -41 3 -102 l21 -63 1 85 c1 52 4 77 9 65 10
-26 3 -147 -10 -160 -12 -12 -12 -85 1 -85 5 0 17 15 27 33 14 24 18 53 17
122 -2 140 -32 186 -69 105z"/>
<path d="M1600 2926 c0 -3 4 -16 10 -30 9 -25 12 -26 95 -26 83 0 86 1 96 26
13 35 7 39 -29 20 -26 -14 -31 -14 -42 -1 -16 19 -29 19 -51 -1 -16 -15 -20
-15 -41 0 -22 16 -38 20 -38 12z"/>
<path d="M2867 2864 c-10 -10 20 -92 52 -142 46 -72 101 -116 116 -92 7 11
-25 59 -38 60 -18 0 -116 140 -99 140 4 0 22 -24 39 -53 50 -84 63 -87 37 -9
-16 50 -28 71 -50 84 -30 19 -47 22 -57 12z"/>
<path d="M595 2837 c-74 -54 -144 -162 -184 -281 -42 -127 -55 -249 -46 -421
l7 -139 18 47 c10 27 23 54 29 61 6 7 16 50 22 96 15 123 47 206 123 319 20
29 36 55 36 57 0 11 -49 -22 -89 -60 l-44 -41 6 62 c10 100 34 148 146 304 17
24 13 24 -24 -4z"/>
<path d="M692 2839 c2 -7 24 -20 48 -29 31 -12 46 -24 48 -39 4 -26 -19 -28
-72 -6 -35 15 -56 13 -56 -4 0 -12 106 -45 124 -38 21 8 40 51 32 72 -11 30
-134 73 -124 44z"/>
<path d="M1607 2844 c-16 -16 -2 -19 98 -19 67 0 104 3 102 10 -4 11 -189 19
-200 9z"/>
<path d="M2613 2843 c-20 -7 -15 -23 6 -23 22 0 37 -45 22 -64 -5 -6 -7 -17
-3 -23 9 -14 112 81 112 103 0 11 -15 14 -62 13 -35 0 -69 -3 -75 -6z m97 -28
c0 -2 -9 -9 -19 -14 -14 -8 -20 -7 -25 4 -4 11 2 15 19 15 14 0 25 -2 25 -5z"/>
<path d="M6265 2821 c-102 -27 -155 -90 -155 -183 0 -98 45 -138 197 -178 43
-12 94 -28 114 -36 76 -33 71 -107 -9 -133 -84 -26 -173 7 -190 72 -8 32 -9
32 -73 32 l-64 0 3 -35 c8 -74 61 -136 145 -166 48 -17 175 -20 226 -5 154 46
203 228 85 318 -20 15 -81 39 -146 57 -142 40 -158 49 -158 84 0 48 33 72 100
72 57 0 99 -24 107 -60 5 -30 6 -30 74 -30 76 0 77 2 58 61 -15 44 -54 86
-103 111 -43 22 -161 33 -211 19z"/>
<path d="M8868 2817 c-50 -14 -63 -22 -116 -71 -120 -110 -127 -349 -13 -478
60 -69 170 -103 277 -86 103 16 182 77 226 173 18 40 22 68 23 145 0 82 -4
103 -26 150 -36 77 -71 115 -135 146 -65 32 -165 41 -236 21z m182 -130 c53
-35 73 -79 78 -168 4 -70 2 -85 -22 -133 -22 -44 -35 -59 -72 -77 -54 -26
-121 -22 -163 8 -90 67 -105 252 -28 340 38 43 58 52 123 52 37 1 60 -5 84
-22z"/>
<path d="M12426 2819 c-88 -22 -172 -103 -201 -194 -57 -181 24 -380 174 -430
182 -60 342 26 385 208 l6 27 -70 0 c-58 0 -70 -3 -70 -16 0 -32 -44 -93 -78
-110 -43 -20 -113 -14 -151 13 -14 11 -37 40 -51 64 -20 36 -25 58 -25 120 0
133 60 209 165 209 54 0 103 -27 125 -70 15 -29 18 -30 81 -30 l66 0 -7 28
c-19 76 -73 140 -143 169 -44 18 -155 25 -206 12z"/>
<path d="M13068 2816 c-132 -36 -210 -152 -211 -316 -1 -73 3 -94 27 -145 31
-69 64 -107 121 -140 79 -47 219 -49 305 -5 130 66 193 259 137 418 -55 157
-210 233 -379 188z m179 -126 c65 -39 100 -170 73 -270 -33 -122 -174 -169
-265 -88 -92 80 -81 294 20 358 41 27 129 27 172 0z"/>
<path d="M1656 2796 c4 -17 2 -26 -6 -26 -6 0 -14 9 -17 21 -9 32 -51 16 -103
-40 -25 -27 -57 -57 -73 -66 -15 -10 -30 -28 -33 -40 -7 -27 31 -121 52 -129
21 -8 61 10 74 33 12 24 113 57 205 69 47 5 61 11 63 25 3 15 0 18 -17 12 -45
-14 -120 -21 -135 -13 -17 10 -22 48 -6 48 6 0 10 -7 10 -15 0 -18 42 -20 106
-4 69 18 54 32 -26 24 -91 -9 -93 9 -3 21 40 5 68 14 71 22 3 11 -9 12 -62 7
-43 -5 -66 -4 -66 3 0 6 29 14 65 17 44 5 65 12 65 21 0 19 -7 21 -93 29 l-78
7 7 -26z m7 -67 c3 -13 1 -19 -6 -16 -15 5 -22 37 -9 37 5 0 12 -9 15 -21z"/>
<path d="M4168 2500 l3 -310 59 0 60 0 2 218 3 217 76 -215 75 -215 55 0 54 0
75 215 75 215 3 -217 2 -218 65 0 65 0 0 310 0 310 -99 0 -98 0 -62 -192 c-82
-255 -75 -241 -91 -193 -7 22 -40 118 -72 213 l-60 172 -97 0 -96 0 3 -310z"/>
<path d="M4960 2500 l0 -311 68 3 67 3 3 308 2 307 -70 0 -70 0 0 -310z"/>
<path d="M5220 2500 l0 -310 60 0 60 0 0 206 c0 120 4 203 9 200 5 -3 65 -96
133 -206 l123 -200 68 0 67 0 0 310 0 310 -60 0 -60 0 -2 -207 -3 -208 -130
207 -130 208 -67 0 -68 0 0 -310z"/>
<path d="M5862 2503 l3 -308 68 -3 67 -3 0 311 0 310 -70 0 -70 0 2 -307z"/>
<path d="M6640 2755 l0 -55 95 0 95 0 0 -255 0 -255 70 0 70 0 0 255 0 255 90
0 90 0 0 55 0 55 -255 0 -255 0 0 -55z"/>
<path d="M7222 2503 l3 -308 238 -3 238 -2 -3 57 -3 58 -167 3 -168 2 0 75 0
75 155 0 155 0 0 50 0 49 -152 3 -153 3 -3 68 -3 67 166 0 165 0 0 55 0 55
-235 0 -235 0 2 -307z"/>
<path d="M7790 2501 l0 -311 70 0 70 0 0 120 0 120 89 0 c49 0 97 -3 106 -6
24 -10 42 -53 50 -119 13 -123 7 -115 86 -115 67 0 68 1 60 23 -5 12 -12 58
-16 102 -8 88 -22 123 -59 153 l-25 19 29 22 c46 34 63 75 58 143 -5 62 -23
96 -72 132 -25 19 -44 21 -237 24 l-209 3 0 -310z m361 182 c15 -15 22 -34 22
-63 0 -70 -24 -84 -143 -88 l-100 -4 0 92 0 92 100 -4 c86 -3 102 -6 121 -25z"/>
<path d="M8420 2500 l0 -310 70 0 70 0 0 310 0 310 -70 0 -70 0 0 -310z"/>
<path d="M9610 2500 l0 -310 65 0 64 0 3 112 3 111 73 -2 c189 -6 282 60 282
203 0 92 -30 143 -105 177 -34 16 -66 19 -212 19 l-173 0 0 -310z m335 180
c35 -33 35 -97 -1 -131 -22 -21 -37 -24 -115 -27 l-89 -4 0 89 c0 49 3 93 8
97 4 5 44 6 89 4 70 -4 87 -8 108 -28z"/>
<path d="M10190 2589 c0 -254 6 -285 65 -344 47 -48 103 -67 194 -67 122 -1
198 35 241 112 24 44 25 51 28 283 l3 237 -70 0 -71 0 0 -220 c0 -246 -5 -269
-61 -289 -71 -25 -156 -3 -178 45 -7 16 -11 102 -11 244 l0 220 -70 0 -70 0 0
-221z"/>
<path d="M10840 2499 l0 -311 193 4 c183 3 194 4 236 28 64 36 84 69 89 143 4
71 -17 116 -68 145 -35 20 -37 28 -10 42 48 26 65 121 33 187 -29 63 -68 73
-285 73 l-188 0 0 -311z m341 182 c26 -32 24 -67 -6 -97 -23 -23 -31 -25 -111
-22 l-86 3 0 68 c1 37 1 70 1 73 1 3 42 4 92 2 81 -3 93 -6 110 -27z m18 -235
c29 -26 29 -98 1 -126 -17 -17 -33 -20 -122 -20 l-103 0 2 82 c1 46 2 85 3 86
0 2 45 2 99 0 80 -2 103 -7 120 -22z"/>
<path d="M11460 2500 l0 -310 220 0 221 0 -3 58 -3 57 -152 3 -153 3 0 249 0
250 -65 0 -65 0 0 -310z"/>
<path d="M11972 2503 l3 -308 68 -3 67 -3 0 311 0 310 -70 0 -70 0 2 -307z"/>
<path d="M875 2773 c-17 -26 -17 -27 4 -44 11 -9 19 -24 16 -32 -9 -22 20 -41
44 -27 17 9 33 3 98 -38 43 -27 84 -52 91 -56 6 -4 12 -3 12 3 0 5 -34 31 -75
56 -73 46 -91 61 -59 48 14 -5 16 1 13 40 -2 25 -1 43 4 40 4 -2 7 -13 7 -24
0 -32 17 -56 64 -89 46 -31 56 -35 56 -22 0 4 -20 20 -45 35 -42 27 -49 38
-57 92 -3 17 -11 20 -53 20 -28 1 -60 6 -72 13 -29 16 -28 16 -48 -15z m105
-18 c15 5 18 3 14 -9 -3 -9 -10 -14 -14 -11 -4 3 -13 -2 -20 -10 -7 -8 -9 -15
-4 -15 12 -1 -27 -30 -39 -30 -5 0 -7 9 -4 20 3 13 -2 25 -16 35 -24 17 -15
20 13 5 11 -6 21 -6 25 -1 3 5 -4 12 -15 16 -11 3 -20 11 -20 16 0 5 14 2 30
-6 17 -9 40 -13 50 -10z"/>
<path d="M1072 2751 c11 -28 34 -63 51 -77 43 -37 47 -20 4 20 -20 19 -37 38
-37 44 0 6 -3 17 -6 26 -8 21 21 21 60 1 36 -19 36 -19 36 5 0 16 -7 20 -34
20 -18 0 -48 3 -65 6 l-31 6 22 -51z"/>
<path d="M1205 2778 c-3 -13 -46 -231 -95 -484 -49 -254 -94 -480 -99 -503 -7
-34 -6 -43 5 -48 8 -3 17 -4 19 -2 2 2 42 202 89 444 48 242 90 456 95 475 6
22 9 -148 10 -442 1 -418 3 -478 16 -478 13 0 15 59 15 472 0 259 3 469 6 465
3 -3 46 -211 95 -462 49 -251 91 -461 95 -466 10 -17 36 -10 30 9 -2 9 -26
127 -52 262 -26 135 -70 364 -98 510 l-51 265 -37 3 c-32 3 -38 0 -43 -20z"/>
<path d="M2061 2522 c-29 -152 -76 -389 -103 -526 -27 -137 -46 -251 -44 -254
18 -17 35 16 51 100 101 523 162 829 168 835 4 3 7 -204 7 -463 -1 -415 1
-469 15 -472 13 -3 15 48 15 469 0 260 2 470 4 468 2 -2 40 -193 85 -424 101
-520 100 -515 117 -515 8 0 14 7 14 16 0 14 -183 963 -197 1022 -4 18 -12 22
-42 22 l-36 0 -54 -278z"/>
<path d="M2268 2793 c-39 -3 -48 -8 -48 -23 0 -17 2 -18 28 -4 32 16 62 18 62
4 0 -20 -30 -69 -52 -84 -12 -9 -19 -19 -15 -22 9 -10 46 24 63 58 28 53 34
78 21 76 -6 -1 -33 -3 -59 -5z"/>
<path d="M2475 2787 c-11 -6 -42 -12 -70 -12 -50 0 -50 0 -56 -38 -3 -20 -8
-39 -10 -40 -2 -2 -26 -19 -53 -37 -28 -19 -45 -35 -38 -38 18 -6 102 57 115
86 l11 27 4 -28 c3 -22 7 -27 20 -22 27 10 4 -8 -77 -59 -40 -26 -71 -50 -68
-53 4 -3 47 20 97 51 76 47 94 55 111 45 24 -13 53 6 44 28 -3 8 5 23 16 32
21 17 21 18 4 44 -20 30 -22 31 -50 14z m25 -16 c0 -5 -9 -13 -20 -16 -11 -4
-17 -11 -14 -17 4 -6 10 -6 17 1 6 6 18 11 26 11 11 0 8 -5 -7 -16 -16 -11
-21 -22 -17 -35 4 -10 3 -19 -2 -19 -14 0 -38 19 -38 30 0 6 -11 20 -25 31
-24 19 -24 20 -3 14 12 -3 35 1 50 9 34 18 33 18 33 7z"/>
<path d="M1403 2748 c14 -23 30 -44 36 -46 6 -2 -1 17 -16 42 -15 25 -32 46
-36 46 -5 0 2 -19 16 -42z"/>
<path d="M1442 2755 c21 -31 38 -45 38 -29 0 15 -36 64 -47 64 -9 0 -6 -11 9
-35z"/>
<path d="M1480 2770 c6 -11 15 -20 20 -20 6 0 10 9 10 20 0 13 -7 20 -20 20
-18 0 -19 -3 -10 -20z"/>
<path d="M1864 2737 c-13 -27 -24 -58 -24 -70 0 -20 23 11 83 110 5 8 0 11
-13 10 -14 -1 -29 -17 -46 -50z"/>
<path d="M1896 2700 c-67 -104 -71 -133 -4 -38 89 126 90 128 76 128 -7 0 -40
-41 -72 -90z"/>
<path d="M1932 2689 c-34 -56 -60 -104 -57 -107 3 -3 7 -3 9 -1 8 10 126 200
126 205 0 19 -24 -11 -78 -97z"/>
<path d="M2001 2679 c-45 -62 -79 -115 -76 -118 4 -3 9 -1 13 5 4 5 40 56 81
112 40 57 71 105 68 108 -2 3 -41 -45 -86 -107z"/>
<path d="M1310 2774 c0 -6 20 -39 45 -74 25 -35 45 -57 45 -49 0 9 -18 39 -40
68 -47 64 -50 67 -50 55z"/>
<path d="M1827 2774 c-8 -8 3 -34 14 -34 5 0 9 9 9 20 0 19 -11 26 -23 14z"/>
<path d="M641 2686 c-7 -8 -11 -30 -9 -48 4 -46 31 -48 74 -7 30 29 34 31 40
14 5 -13 1 -23 -14 -33 -25 -16 -29 -32 -9 -32 42 0 63 81 27 100 -15 8 -25 5
-54 -20 -24 -21 -37 -27 -42 -19 -4 7 0 17 9 24 10 7 17 17 17 24 0 16 -25 14
-39 -3z"/>
<path d="M2732 2685 c-75 -23 -71 -19 -60 -64 6 -24 16 -41 25 -41 10 0 12 6
8 23 -4 12 -8 26 -9 31 0 6 23 16 52 24 30 9 52 21 52 28 0 17 -12 17 -68 -1z"/>
<path d="M140 2607 c54 -100 77 -170 89 -279 9 -73 22 -120 62 -218 28 -69 53
-127 56 -130 9 -8 -7 209 -22 300 -29 168 -80 323 -118 358 -20 17 -77 42 -99
42 -5 0 10 -33 32 -73z"/>
<path d="M1330 2669 c0 -8 23 -39 51 -69 36 -40 46 -47 35 -25 -21 40 -86 112
-86 94z"/>
<path d="M2008 2612 c-32 -36 -58 -70 -58 -75 0 -13 33 17 82 75 62 74 40 74
-24 0z"/>
<path d="M3168 2653 c-30 -35 -38 -60 -28 -88 5 -14 10 -43 10 -63 1 -56 18
-18 29 64 l10 69 -4 -73 c-2 -41 -10 -84 -18 -95 -18 -29 -29 -85 -17 -92 15
-9 48 44 59 96 14 62 14 140 1 173 -11 30 -21 32 -42 9z"/>
<path d="M3044 2614 c-12 -85 14 -206 41 -184 9 8 9 26 -1 82 -7 40 -13 84
-12 98 0 14 10 -24 22 -84 24 -125 46 -153 46 -58 0 33 -7 79 -15 103 -15 42
-50 89 -66 89 -4 0 -11 -21 -15 -46z"/>
<path d="M2934 2616 c-18 -48 83 -246 126 -246 19 0 10 41 -13 63 -28 26 -72
101 -81 137 -4 14 9 -5 29 -42 36 -69 63 -101 45 -53 -6 15 -10 44 -10 65 0
34 -5 43 -37 65 -43 29 -52 30 -59 11z"/>
<path d="M1345 2590 c8 -29 193 -220 213 -220 7 0 -3 14 -23 31 -38 34 -39 37
-25 59 9 13 11 13 20 -1 18 -31 49 -64 50 -52 0 21 -64 89 -82 85 -11 -2 -15
-10 -12 -20 3 -9 -29 19 -71 63 -56 58 -75 73 -70 55z"/>
<path d="M1630 2579 c-62 -22 -79 -34 -64 -49 6 -6 28 -3 62 10 53 20 142 27
142 11 0 -4 -26 -11 -59 -14 -32 -2 -75 -13 -95 -22 -29 -14 -39 -15 -51 -5
-19 16 -30 7 -21 -17 6 -15 9 -15 16 -3 8 12 10 12 15 -1 5 -14 12 -14 58 -2
61 15 141 18 132 3 -3 -5 -19 -10 -34 -10 -52 0 -141 -22 -141 -36 0 -9 8 -10
35 -3 43 12 142 8 135 -6 -3 -5 -16 -8 -29 -6 -46 6 -131 -10 -131 -24 0 -22
31 -34 58 -24 15 6 62 6 124 -1 126 -13 115 -13 138 10 15 15 20 33 20 75 0
49 -3 56 -27 71 -16 10 -44 28 -64 41 -45 29 -139 30 -219 2z m175 -7 c0 -18
-20 -15 -23 4 -3 10 1 15 10 12 7 -3 13 -10 13 -16z m-5 -57 c0 -8 -4 -15 -10
-15 -5 0 -10 7 -10 15 0 8 5 15 10 15 6 0 10 -7 10 -15z m0 -65 c0 -16 -4 -30
-10 -30 -5 0 -10 14 -10 30 0 17 5 30 10 30 6 0 10 -13 10 -30z"/>
<path d="M2002 2555 c-57 -64 -54 -81 4 -24 26 26 45 52 42 59 -2 8 -21 -7
-46 -35z"/>
<path d="M1015 2576 c-44 -14 -46 -23 -14 -68 22 -31 93 -72 112 -65 7 3 -9
14 -34 26 -42 19 -79 56 -79 79 0 21 63 22 97 2 38 -22 43 -24 43 -12 0 6 -74
53 -82 51 -2 0 -21 -6 -43 -13z"/>
<path d="M2292 2568 c-40 -25 -35 -35 6 -14 31 16 92 12 92 -6 0 -22 -37 -61
-72 -75 -21 -8 -38 -19 -38 -24 0 -13 6 -11 50 11 33 17 58 43 84 88 5 7 -1
15 -16 21 -55 20 -73 20 -106 -1z"/>
<path d="M2752 2576 c-29 -8 -55 -16 -58 -19 -3 -3 0 -24 6 -46 12 -46 35 -46
25 -1 -6 28 -5 29 49 40 37 7 56 16 56 26 0 17 -8 16 -78 0z"/>
<path d="M876 2529 c-10 -6 -34 -9 -53 -6 -30 5 -35 3 -44 -20 -12 -32 -5 -53
16 -53 8 0 15 -9 15 -20 0 -28 27 -36 49 -16 17 15 25 14 117 -14 54 -17 105
-32 112 -35 6 -2 12 0 12 5 0 5 -38 21 -84 36 -78 24 -84 28 -88 55 -6 37 2
45 16 18 12 -23 170 -87 164 -67 -3 7 -33 21 -69 33 -55 18 -67 26 -82 58 -20
39 -44 47 -81 26z m18 -21 c-4 -7 -13 -20 -21 -30 -10 -11 -11 -18 -3 -23 8
-5 5 -11 -7 -21 -23 -17 -33 -17 -33 0 0 8 -10 22 -22 32 l-23 16 28 -6 c16
-4 27 -2 27 4 0 5 -6 10 -14 10 -8 0 -18 4 -21 10 -4 6 5 7 24 4 16 -3 37 -1
48 5 24 14 26 13 17 -1z"/>
<path d="M2444 2504 c-17 -33 -27 -41 -83 -59 -36 -12 -66 -26 -69 -33 -7 -21
152 44 164 68 7 12 14 18 17 13 3 -5 2 -15 -3 -23 -5 -8 -5 -19 0 -25 6 -8
-21 -20 -84 -39 -81 -24 -93 -31 -89 -47 4 -12 12 -18 22 -15 54 16 71 16 101
1 l32 -17 -28 -29 c-17 -18 -43 -32 -66 -35 -21 -4 -38 -10 -38 -14 0 -4 20
-4 44 0 31 5 51 15 74 41 17 19 32 36 32 39 0 3 -21 16 -47 30 l-46 25 73 23
c68 21 74 21 91 6 22 -20 49 -12 49 16 0 11 7 20 15 20 21 0 28 21 17 50 -8
20 -17 25 -53 26 -24 1 -58 5 -75 9 -29 6 -33 4 -50 -31z m121 -1 c21 3 33 2
30 -4 -4 -5 -13 -9 -21 -9 -8 0 -14 -5 -14 -10 0 -6 12 -8 28 -5 26 5 26 5 5
-6 -13 -7 -23 -20 -23 -31 0 -22 -1 -22 -34 -4 -22 11 -24 15 -10 20 15 6 15
8 2 24 -8 9 -19 24 -23 32 -8 13 -7 13 8 1 11 -9 30 -12 52 -8z m-198 -129
c-3 -3 -12 -4 -19 -1 -8 3 -5 6 6 6 11 1 17 -2 13 -5z"/>
<path d="M1370 2478 c0 -7 31 -33 68 -58 79 -53 82 -55 82 -42 0 5 -34 33 -75
61 -42 29 -75 46 -75 39z"/>
<path d="M1993 2464 c-44 -34 -42 -50 2 -22 19 13 35 29 35 36 0 16 0 16 -37
-14z"/>
<path d="M635 2466 c-32 -7 -50 -16 -50 -26 0 -13 105 -80 126 -80 15 0 10 22
-7 35 -19 14 -11 55 12 55 8 0 14 7 14 15 0 18 -24 18 -95 1z m35 -41 c0 -13
-4 -14 -20 -5 -11 6 -20 13 -20 15 0 3 9 5 20 5 11 0 20 -7 20 -15z"/>
<path d="M2780 2473 c-46 -6 -60 -19 -60 -58 0 -48 20 -60 86 -49 70 11 66 29
-6 29 -48 0 -55 2 -55 20 0 16 10 22 53 29 33 6 52 14 52 22 0 14 -5 14 -70 7z"/>
<path d="M1380 2426 c0 -7 12 -18 26 -25 15 -6 24 -14 21 -17 -3 -3 -15 -1
-26 6 -14 7 -21 7 -21 0 0 -5 3 -11 8 -11 18 -4 92 -7 92 -5 0 2 -22 17 -50
34 -32 20 -50 26 -50 18z"/>
<path d="M1973 2408 c-24 -16 -43 -30 -43 -32 0 -11 70 -2 80 9 15 18 7 19
-23 4 -14 -7 -12 -2 8 14 43 36 27 40 -22 5z"/>
<path d="M2195 2410 c-3 -5 -1 -10 4 -10 6 0 11 5 11 10 0 6 -2 10 -4 10 -3 0
-8 -4 -11 -10z"/>
<path d="M3080 2384 c-16 -46 -8 -144 16 -202 28 -68 36 -35 19 76 -17 112
-18 128 -9 119 3 -3 12 -47 19 -99 7 -51 14 -97 16 -103 1 -5 -4 -23 -11 -40
-30 -67 -21 -249 11 -229 8 5 10 38 6 107 -3 61 -2 95 4 86 5 -8 9 -54 9 -104
0 -101 12 -137 29 -92 20 52 13 149 -13 202 -18 35 -22 53 -15 66 24 45 3 167
-38 224 -24 33 -29 31 -43 -11z"/>
<path d="M3186 2384 c-19 -29 -23 -42 -15 -61 5 -13 9 -43 10 -66 l1 -42 13
40 c8 22 14 59 14 83 1 23 5 42 10 42 6 0 7 -17 5 -37 -9 -68 -26 -133 -34
-133 -11 0 -22 -62 -11 -73 14 -14 49 39 60 94 12 55 15 148 5 173 -10 26 -32
18 -58 -20z"/>
<path d="M1187 2396 c-6 -15 1 -26 15 -26 4 0 8 9 8 20 0 23 -15 27 -23 6z"/>
<path d="M2190 2380 c0 -5 5 -10 10 -10 6 0 10 5 10 10 0 6 -4 10 -10 10 -5 0
-10 -4 -10 -10z"/>
<path d="M2970 2355 c0 -44 32 -137 62 -181 21 -31 65 -60 75 -50 6 6 -26 66
-35 66 -4 0 -8 33 -10 73 -2 67 -4 74 -35 99 -44 37 -57 35 -57 -7z m59 -71
c17 -37 29 -69 27 -71 -5 -5 -49 79 -60 115 -14 43 2 22 33 -44z"/>
<path d="M963 2357 c-24 -11 -43 -24 -43 -27 0 -3 17 -22 38 -42 27 -26 49
-37 80 -41 23 -3 42 -2 42 3 0 4 -19 10 -42 13 -27 4 -51 15 -71 35 l-30 30
33 17 c27 14 40 15 76 6 52 -13 57 -13 50 -2 -3 4 -18 11 -33 14 -16 3 -35 8
-43 11 -8 2 -34 -5 -57 -17z"/>
<path d="M1653 2369 c-19 -5 -33 -16 -33 -25 0 -23 163 -16 168 8 2 11 -3 17
-15 16 -10 0 -34 2 -53 5 -19 3 -50 1 -67 -4z"/>
<path d="M1290 2356 c0 -9 5 -16 10 -16 6 0 10 4 10 9 0 6 -4 13 -10 16 -5 3
-10 -1 -10 -9z"/>
<path d="M2086 2355 c-3 -9 0 -15 9 -15 8 0 15 7 15 15 0 8 -4 15 -9 15 -5 0
-11 -7 -15 -15z"/>
<path d="M1185 2340 c3 -5 10 -10 16 -10 5 0 9 5 9 10 0 6 -7 10 -16 10 -8 0
-12 -4 -9 -10z"/>
<path d="M1404 2337 c-4 -12 109 -463 119 -473 2 -3 18 -6 36 -9 25 -3 31 0
31 16 0 12 -7 19 -19 19 -11 0 -22 3 -24 8 -7 10 -107 397 -107 411 0 7 23 11
64 11 68 0 96 6 96 21 0 15 -190 11 -196 -4z"/>
<path d="M1812 2338 c3 -9 30 -14 76 -16 40 -2 72 -6 72 -10 0 -4 -23 -99 -52
-210 -46 -183 -54 -205 -76 -213 -26 -10 -26 -31 1 -35 38 -5 54 29 112 253
31 122 54 226 50 232 -10 16 -188 15 -183 -1z"/>
<path d="M2190 2330 c0 -11 7 -20 15 -20 8 0 15 9 15 20 0 11 -7 20 -15 20 -8
0 -15 -9 -15 -20z"/>
<path d="M2752 2333 c-20 -4 -23 -10 -20 -45 2 -24 9 -43 16 -46 10 -3 13 5
10 29 l-3 34 58 3 c42 2 57 7 57 17 0 11 -12 15 -47 14 -27 -1 -58 -4 -71 -6z"/>
<path d="M570 2311 c0 -13 15 -25 48 -38 l47 -20 -50 -14 c-39 -11 -51 -20
-53 -37 -3 -21 0 -22 67 -22 56 0 71 3 71 15 0 11 -12 15 -42 16 l-43 0 40 15
c60 22 62 30 14 52 l-44 20 43 1 c30 1 42 5 42 16 0 12 -14 15 -70 15 -62 0
-70 -2 -70 -19z"/>
<path d="M1170 2320 c0 -5 10 -10 23 -10 18 0 19 2 7 10 -19 13 -30 13 -30 0z"/>
<path d="M1287 2301 c3 -11 12 -22 20 -26 21 -7 22 -4 12 23 -10 28 -39 30
-32 3z"/>
<path d="M1600 2290 l0 -30 106 0 105 0 -3 28 -3 27 -102 3 -103 3 0 -31z"/>
<path d="M2080 2301 c-14 -27 -13 -30 10 -24 11 3 20 14 20 24 0 25 -16 24
-30 0z"/>
<path d="M105 2290 c-6 -10 13 -341 20 -348 2 -2 11 21 21 52 10 31 20 56 24
56 3 0 15 -66 27 -146 19 -129 24 -148 45 -162 47 -33 105 -92 124 -127 10
-19 22 -35 26 -35 15 0 8 115 -11 195 -23 93 -74 244 -126 368 -28 65 -47 96
-78 122 -42 36 -61 43 -72 25z m138 -226 c37 -103 89 -284 84 -297 -1 -5 -11
21 -22 59 -16 59 -76 245 -100 309 -5 13 -5 17 2 10 5 -5 22 -42 36 -81z"/>
<path d="M865 2271 c-9 -11 -33 -21 -54 -23 -34 -3 -36 -5 -36 -38 0 -26 5
-36 19 -38 11 -2 28 -14 38 -26 l18 -21 19 23 c17 20 29 22 113 23 93 1 86 15
-9 18 -24 0 -42 4 -41 9 4 21 -16 63 -30 60 -9 -2 -15 -7 -13 -11 1 -4 -5 -15
-14 -23 -10 -11 -12 -20 -6 -28 6 -7 5 -17 -3 -29 -17 -22 -22 -22 -29 3 -3
12 -14 20 -29 21 -19 1 -18 2 7 9 29 7 28 9 -15 23 -8 3 1 6 21 6 22 1 43 8
54 21 24 26 35 25 60 -7 18 -21 32 -27 78 -31 38 -3 57 -1 57 7 0 7 -19 11
-49 11 -42 0 -53 4 -74 30 -30 35 -57 38 -82 11z"/>
<path d="M1480 2283 c0 -3 21 -86 46 -185 40 -150 50 -178 65 -178 11 0 19 5
19 10 0 6 -6 10 -13 10 -7 0 -27 57 -51 153 -22 83 -41 158 -44 165 -3 8 9 12
38 12 25 0 39 4 35 10 -7 11 -95 14 -95 3z"/>
<path d="M1835 2280 c-4 -6 8 -10 30 -10 30 0 35 -3 31 -17 -3 -10 -22 -83
-43 -163 -20 -80 -41 -146 -45 -148 -13 -6 -9 -22 5 -22 9 0 29 59 60 179 26
99 47 182 47 185 0 10 -78 7 -85 -4z"/>
<path d="M2452 2260 c-20 -27 -28 -30 -77 -30 -34 0 -55 -4 -55 -11 0 -8 20
-10 62 -7 51 4 64 9 82 31 26 32 37 33 61 7 11 -12 32 -21 54 -21 30 -2 32 -3
9 -6 -16 -2 -28 -9 -28 -14 0 -5 12 -10 28 -10 25 -2 25 -2 3 -6 -13 -3 -26
-13 -28 -24 -7 -24 -12 -24 -29 -2 -8 12 -9 22 -3 29 6 8 4 17 -6 28 -9 8 -15
19 -15 23 1 4 -5 9 -13 11 -13 3 -33 -40 -29 -60 1 -5 -17 -9 -40 -9 -96 -3
-103 -17 -10 -18 84 -1 96 -3 113 -23 l19 -23 18 21 c10 12 27 24 38 26 14 2
19 12 19 38 0 33 -2 35 -36 38 -21 2 -45 12 -54 23 -26 28 -58 24 -83 -11z"/>
<path d="M1160 2240 c0 -5 12 -10 28 -9 24 0 25 1 7 9 -27 12 -35 12 -35 0z"/>
<path d="M2200 2240 c-12 -8 -9 -10 13 -10 15 0 27 5 27 10 0 13 -20 13 -40 0z"/>
<path d="M1630 2075 l0 -165 30 0 30 0 0 165 0 165 -30 0 -30 0 0 -165z"/>
<path d="M1710 2075 l0 -165 35 0 35 0 0 165 0 165 -35 0 -35 0 0 -165z"/>
<path d="M1290 2211 c0 -16 6 -21 26 -21 33 0 30 33 -4 38 -17 3 -22 -2 -22
-17z"/>
<path d="M1540 2225 c0 -7 40 -87 47 -95 6 -6 23 22 23 38 0 7 -5 10 -11 6 -6
-3 -15 0 -20 7 -13 20 -11 29 5 29 8 0 18 5 21 10 4 6 -8 10 -29 10 -20 0 -36
-2 -36 -5z"/>
<path d="M1814 2215 c18 -13 18 -16 2 -39 -17 -27 -21 -46 -8 -46 7 0 52 82
52 95 0 3 -15 5 -32 5 -31 -1 -32 -2 -14 -15z"/>
<path d="M2060 2210 c0 -15 7 -20 25 -20 18 0 25 5 25 20 0 15 -7 20 -25 20
-18 0 -25 -5 -25 -20z"/>
<path d="M2740 2160 c0 -40 4 -70 10 -70 17 0 11 -52 -7 -66 -33 -24 -5 -25
66 -4 40 13 71 28 71 35 0 7 -29 25 -65 41 -46 19 -64 32 -60 41 3 8 5 26 5
39 0 23 3 24 60 24 47 0 60 3 60 15 0 12 -14 15 -70 15 l-70 0 0 -70z m84 -99
c3 -5 -3 -11 -14 -14 -13 -3 -20 0 -20 9 0 15 26 19 34 5z"/>
<path d="M1150 2210 c0 -5 14 -10 30 -10 17 0 30 5 30 10 0 6 -13 10 -30 10
-16 0 -30 -4 -30 -10z"/>
<path d="M2190 2210 c0 -5 14 -10 30 -10 17 0 30 5 30 10 0 6 -13 10 -30 10
-16 0 -30 -4 -30 -10z"/>
<path d="M1143 2160 c-1 -16 4 -20 33 -20 27 0 34 4 34 20 0 16 -7 20 -33 20
-26 0 -33 -4 -34 -20z"/>
<path d="M2190 2160 c0 -16 7 -20 36 -20 29 0 35 3 30 16 -3 9 -6 18 -6 20 0
2 -13 4 -30 4 -23 0 -30 -4 -30 -20z"/>
<path d="M1290 2160 c0 -5 14 -10 30 -10 17 0 30 5 30 10 0 6 -13 10 -30 10
-16 0 -30 -4 -30 -10z"/>
<path d="M2050 2160 c0 -5 14 -10 30 -10 17 0 30 5 30 10 0 6 -13 10 -30 10
-16 0 -30 -4 -30 -10z"/>
<path d="M442 2104 c-63 -125 -74 -204 -44 -312 l18 -64 16 39 c8 22 13 53 11
69 -2 16 5 94 17 173 11 79 19 146 16 148 -3 3 -18 -21 -34 -53z"/>
<path d="M630 2120 c-88 -36 -88 -50 0 -79 74 -23 102 -20 63 6 -27 18 -30 51
-7 68 38 27 5 30 -56 5z m20 -35 c0 -8 -9 -15 -20 -15 -25 0 -26 17 -2 23 9 3
18 5 20 6 1 0 2 -6 2 -14z"/>
<path d="M943 2117 c-23 -17 -42 -34 -43 -38 0 -3 19 -14 43 -26 42 -20 97
-21 97 -2 0 5 -7 6 -16 2 -17 -6 -94 16 -94 27 0 16 69 59 101 63 33 4 33 4
-6 5 -31 1 -49 -6 -82 -31z"/>
<path d="M2364 2143 c28 -5 96 -48 96 -62 0 -9 -60 -31 -86 -32 -17 0 -16 -1
4 -9 17 -7 34 -4 67 12 25 12 45 24 45 27 0 4 -20 21 -44 39 -31 23 -53 32
-77 31 -33 -2 -33 -2 -5 -6z"/>
<path d="M3233 2115 c-27 -32 -29 -40 -22 -78 4 -23 5 -53 3 -67 -11 -53 16 8
30 70 16 68 33 97 22 38 -11 -63 -36 -138 -46 -138 -11 0 -34 -79 -26 -87 12
-12 64 59 77 104 17 59 19 185 3 190 -7 2 -25 -12 -41 -32z"/>
<path d="M3017 2133 c-24 -23 16 -191 57 -240 35 -42 21 -62 -16 -22 -28 30
-31 31 -40 14 -17 -30 -3 -166 23 -221 12 -27 21 -56 20 -64 -2 -10 2 -9 13 5
21 27 20 47 -3 87 -19 32 -46 147 -36 156 2 2 6 -6 9 -19 3 -13 10 -49 17 -79
l13 -55 11 76 c5 42 16 83 23 92 15 18 7 63 -13 71 -12 4 -40 68 -60 136 -14
47 12 7 29 -45 26 -80 32 -79 31 5 0 44 -4 80 -8 80 -5 0 -5 -5 -1 -12 4 -6
-8 0 -28 15 -19 15 -38 24 -41 20z"/>
<path d="M1325 2110 c-18 -3 -31 -12 -33 -23 -3 -15 1 -17 25 -11 53 13 61 44
8 34z"/>
<path d="M6957 2070 c-43 -57 -44 -60 -18 -60 10 0 40 25 66 55 l47 55 -29 0
c-23 0 -36 -10 -66 -50z"/>
<path d="M12607 2067 c-31 -43 -35 -53 -21 -56 10 -2 39 19 73 53 l56 56 -35
0 c-31 -1 -40 -7 -73 -53z"/>
<path d="M2040 2101 c0 -12 8 -16 43 -25 20 -5 27 -3 27 8 0 8 -7 17 -16 20
-24 9 -54 7 -54 -3z"/>
<path d="M1162 2080 c-49 -11 -53 -24 -7 -17 l40 5 -37 -11 c-37 -10 -52 -27
-24 -27 33 0 76 23 76 41 0 21 0 21 -48 9z"/>
<path d="M2190 2070 c0 -12 12 -22 35 -30 42 -14 71 -7 35 8 l-25 11 24 0 c33
1 24 8 -27 19 -37 9 -42 8 -42 -8z"/>
<path d="M1318 2058 c-25 -9 -40 -38 -19 -38 24 0 71 24 71 36 0 16 -13 17
-52 2z"/>
<path d="M2032 2054 c1 -9 20 -23 41 -30 34 -12 37 -12 37 6 0 22 -4 25 -48
35 -29 6 -33 4 -30 -11z"/>
<path d="M833 2018 c-6 -7 -13 -21 -16 -30 -3 -10 -22 -24 -42 -32 -39 -17
-39 -15 -25 -51 8 -20 16 -26 34 -23 13 1 31 -3 39 -11 22 -17 47 -7 47 18 0
17 14 25 75 42 41 12 75 26 75 31 0 9 -33 3 -94 -19 -29 -10 -36 -10 -28 0 11
13 -17 57 -38 57 -6 0 -8 5 -5 10 4 6 16 3 32 -10 14 -11 35 -20 46 -20 31 0
97 22 97 33 0 5 -7 6 -16 3 -44 -17 -93 -18 -115 -2 -28 19 -53 21 -66 4z m11
-63 c-5 -19 -2 -25 10 -25 13 0 14 -4 4 -25 -11 -25 -28 -34 -28 -15 0 6 -15
10 -32 11 l-33 1 28 10 c15 5 25 14 21 19 -3 5 -13 5 -25 -1 -11 -6 -19 -7
-19 -1 0 5 14 14 30 20 17 5 30 15 30 20 0 6 5 11 10 11 6 0 8 -11 4 -25z"/>
<path d="M2501 2013 c-21 -14 -32 -15 -79 -5 -62 13 -80 9 -36 -9 60 -23 94
-23 125 0 l29 22 21 -35 c11 -19 31 -37 44 -40 14 -4 25 -11 25 -17 0 -6 -6
-6 -19 1 -12 6 -22 6 -25 1 -4 -5 6 -14 21 -19 l28 -10 -32 -1 c-18 -1 -33 -5
-33 -11 0 -19 -17 -10 -28 15 -10 21 -9 25 4 25 12 0 15 6 10 23 -3 12 -6 28
-6 35 0 19 -20 14 -40 -10 -12 -16 -15 -27 -9 -35 6 -6 -15 -3 -51 8 -69 21
-89 24 -74 10 5 -5 38 -18 74 -28 51 -15 68 -25 78 -46 14 -30 33 -35 51 -13
6 7 22 11 36 8 20 -3 27 1 35 23 14 36 14 34 -25 51 -19 8 -41 27 -50 44 -17
34 -39 38 -74 13z"/>
<path d="M1143 2009 c-18 -5 -33 -14 -33 -20 0 -6 9 -8 23 -3 45 14 51 14 22
0 -16 -8 -36 -15 -42 -16 -7 0 -13 -5 -13 -11 0 -11 19 -7 77 17 18 8 33 21
33 29 0 17 -19 18 -67 4z"/>
<path d="M2215 2005 c51 -22 75 -27 75 -16 0 5 -17 15 -37 20 -52 15 -75 12
-38 -4z"/>
<path d="M1333 1988 c-23 -12 -44 -29 -46 -40 -7 -23 -4 -23 49 8 24 14 44 32
44 40 0 8 -1 14 -2 13 -2 0 -22 -10 -45 -21z"/>
<path d="M2022 1989 c2 -6 23 -22 46 -36 34 -21 42 -22 42 -9 0 8 -18 25 -40
36 -45 23 -53 24 -48 9z"/>
<path d="M2190 1992 c0 -11 99 -46 107 -38 3 3 -3 9 -13 12 -10 4 -34 13 -53
20 -39 16 -41 17 -41 6z"/>
<path d="M4934 1969 c-46 -13 -90 -59 -105 -108 -11 -36 -10 -50 2 -84 18 -52
59 -76 187 -107 51 -12 107 -32 125 -44 62 -42 61 -111 -2 -153 -45 -31 -95
-38 -160 -25 -68 14 -109 51 -117 104 -6 34 -10 38 -36 38 -29 0 -30 -1 -23
-37 21 -113 95 -159 245 -151 130 7 190 55 190 155 0 89 -38 118 -215 164
-122 32 -145 49 -145 106 0 71 43 103 137 103 73 0 118 -26 141 -80 13 -31 23
-40 41 -40 22 0 23 3 18 38 -8 46 -68 106 -123 121 -46 13 -116 13 -160 0z"/>
<path d="M5512 1966 c-68 -22 -111 -62 -145 -134 -40 -85 -43 -198 -7 -279 45
-105 130 -156 251 -151 62 2 83 8 117 30 46 31 90 99 99 152 5 33 4 36 -20 36
-19 0 -26 -7 -32 -27 -36 -147 -198 -200 -309 -103 -53 47 -79 118 -74 209 7
148 79 231 200 231 33 0 72 -7 87 -15 33 -16 77 -65 86 -95 4 -14 15 -20 35
-20 28 0 29 1 18 33 -17 51 -46 85 -94 113 -55 32 -148 41 -212 20z"/>
<path d="M11750 1971 c-140 -43 -216 -195 -180 -364 26 -128 122 -207 252
-207 122 0 207 69 233 188 7 32 6 33 -21 30 -22 -2 -30 -10 -37 -38 -28 -110
-150 -168 -252 -121 -85 40 -128 115 -128 227 -1 149 78 244 203 244 83 0 144
-37 169 -102 8 -20 17 -28 36 -28 29 0 30 8 11 53 -39 94 -178 151 -286 118z"/>
<path d="M12540 1971 c-113 -37 -178 -128 -188 -262 -13 -183 94 -309 263
-309 169 0 276 125 263 309 -8 114 -59 200 -143 243 -43 23 -152 33 -195 19z
m197 -77 c60 -49 86 -111 87 -202 1 -141 -71 -236 -188 -249 -88 -10 -179 48
-212 134 -26 66 -23 165 5 230 41 92 94 125 198 120 63 -2 76 -6 110 -33z"/>
<path d="M4170 1690 l0 -280 25 0 25 0 0 130 0 130 135 0 135 0 0 25 0 25
-135 0 -135 0 0 100 0 100 155 0 155 0 0 25 0 25 -180 0 -180 0 0 -280z"/>
<path d="M4630 1690 l0 -280 25 0 25 0 0 280 0 280 -25 0 -25 0 0 -280z"/>
<path d="M6108 1958 c-3 -7 -53 -131 -112 -275 -58 -145 -106 -265 -106 -268
0 -3 12 -5 28 -5 25 0 30 6 58 83 l31 82 130 3 130 3 33 -86 c31 -79 35 -85
61 -85 16 0 29 1 29 3 0 1 -49 126 -109 277 -106 270 -109 275 -138 278 -18 2
-32 -2 -35 -10z m88 -193 l51 -135 -109 0 c-60 0 -108 4 -106 8 2 5 25 66 52
135 28 70 52 127 55 127 3 0 29 -61 57 -135z"/>
<path d="M6477 1963 c-4 -3 -7 -129 -7 -280 l0 -273 185 0 c178 0 185 1 185
20 0 19 -7 20 -155 20 l-155 0 0 260 0 260 -23 0 c-13 0 -27 -3 -30 -7z"/>
<path d="M6937 1963 c-4 -3 -7 -129 -7 -280 l0 -273 30 0 30 0 0 280 0 280
-23 0 c-13 0 -27 -3 -30 -7z"/>
<path d="M7192 1696 c-62 -151 -112 -277 -112 -280 0 -4 12 -6 28 -6 25 0 30
6 58 83 l31 82 130 3 130 3 33 -86 c31 -79 35 -85 61 -85 16 0 29 1 29 3 0 1
-49 126 -108 277 -107 271 -109 275 -139 278 l-30 3 -111 -275z m194 69 l52
-135 -110 0 c-60 0 -108 4 -106 8 2 5 25 65 52 135 27 70 52 127 55 127 3 0
29 -61 57 -135z"/>
<path d="M7920 1690 l0 -282 143 4 c123 3 148 6 184 26 83 43 118 118 118 247
0 103 -14 152 -59 203 -52 60 -102 75 -253 80 l-133 4 0 -282z m285 211 c62
-28 91 -69 105 -148 9 -51 9 -83 1 -127 -24 -128 -75 -165 -237 -174 l-104 -5
0 237 0 236 98 0 c72 0 107 -5 137 -19z"/>
<path d="M8490 1690 l0 -280 195 0 c188 0 195 1 195 20 0 19 -7 20 -170 20
l-170 0 0 110 0 110 153 0 c85 0 156 3 159 6 3 3 4 14 1 25 -5 18 -15 19 -159
19 l-154 0 0 100 0 100 168 2 c159 3 167 4 167 23 0 19 -8 20 -192 23 l-193 2
0 -280z"/>
<path d="M9240 1690 l0 -280 185 0 c178 0 185 1 185 20 0 19 -7 20 -160 20
l-160 0 0 260 0 260 -25 0 -25 0 0 -280z"/>
<path d="M9845 1938 c-7 -18 -58 -145 -114 -281 l-100 -248 30 3 c29 3 33 9
62 86 l32 83 129 -3 130 -3 32 -80 c29 -73 34 -80 62 -83 l30 -3 -111 280
c-109 278 -111 281 -139 281 -23 0 -32 -6 -43 -32z m95 -168 c23 -63 45 -121
48 -127 3 -10 -21 -13 -102 -13 -58 0 -106 3 -106 8 0 4 19 54 41 112 23 58
45 116 50 129 6 13 13 20 18 15 4 -5 27 -61 51 -124z"/>
<path d="M10470 1691 l0 -281 25 0 25 0 0 230 c0 127 3 230 8 230 4 0 78 -104
165 -230 146 -211 161 -230 188 -230 l29 0 0 280 0 280 -25 0 -25 0 -2 -235
-3 -236 -161 233 c-147 214 -163 233 -192 236 l-32 3 0 -280z"/>
<path d="M11116 1703 c-60 -147 -111 -274 -113 -280 -3 -9 5 -13 24 -13 27 0
31 5 60 83 l31 82 130 3 130 3 34 -86 c30 -79 35 -85 61 -85 34 0 44 -33 -86
295 -101 255 -103 260 -133 263 l-30 3 -108 -268z m191 65 l50 -133 -54 -3
c-29 -2 -77 -2 -107 0 l-55 3 52 133 c29 72 55 132 58 132 3 0 28 -60 56 -132z"/>
<path d="M12180 1690 l0 -280 25 0 25 0 0 280 0 280 -25 0 -25 0 0 -280z"/>
<path d="M12997 1963 c-4 -3 -7 -129 -7 -280 l0 -273 30 0 30 0 2 232 3 232
160 -232 c153 -222 161 -232 193 -232 l32 0 0 280 0 280 -25 0 -25 0 0 -235
c0 -129 -3 -235 -7 -234 -5 0 -80 105 -168 234 -139 204 -163 235 -186 235
-14 0 -29 -3 -32 -7z"/>
<path d="M1325 1928 c-27 -17 -45 -33 -38 -35 11 -4 103 52 103 62 0 10 -17 3
-65 -27z"/>
<path d="M2010 1954 c1 -13 91 -65 104 -61 6 2 -9 16 -32 31 -52 33 -72 41
-72 30z"/>
<path d="M493 1886 c-12 -24 -34 -89 -49 -143 -23 -82 -27 -118 -27 -218 1
-164 21 -250 75 -313 l41 -47 -7 55 c-4 30 -2 87 3 125 9 61 8 80 -11 145 -18
67 -20 90 -14 210 4 74 11 156 15 183 4 26 5 47 1 47 -3 0 -16 -20 -27 -44z
m-20 -491 c5 -53 4 -63 -3 -40 -6 17 -12 95 -14 175 -4 133 -4 136 3 40 5 -58
11 -136 14 -175z"/>
<path d="M954 1885 c-20 -25 -35 -47 -33 -49 10 -8 73 -26 77 -21 2 2 -7 10
-22 16 -14 7 -26 16 -26 20 0 4 15 24 34 43 18 20 28 36 20 36 -7 0 -29 -20
-50 -45z"/>
<path d="M1332 1894 c-30 -20 -51 -38 -48 -41 5 -6 116 64 116 73 0 10 -20 1
-68 -32z"/>
<path d="M2000 1924 c1 -12 110 -87 116 -81 3 3 -10 16 -28 30 -54 40 -88 60
-88 51z"/>
<path d="M2412 1889 c27 -33 30 -42 18 -49 -8 -6 -18 -10 -22 -10 -5 0 -8 -4
-8 -9 0 -9 56 4 69 15 6 5 -69 94 -80 94 -6 0 5 -18 23 -41z"/>
<path d="M1146 1887 c-33 -18 -59 -36 -58 -42 0 -5 -4 -16 -10 -22 -17 -21 2
-15 69 22 44 25 63 42 63 55 0 11 -1 20 -2 20 -2 0 -30 -15 -62 -33z"/>
<path d="M2192 1894 c2 -9 31 -31 66 -51 58 -33 62 -34 62 -14 0 15 -16 29
-60 51 -69 35 -73 35 -68 14z"/>
<path d="M3144 1889 c-34 -42 -48 -87 -48 -156 -1 -39 2 -74 6 -78 17 -18 27
13 33 105 4 55 12 100 17 100 5 0 7 -8 4 -17 -10 -38 -18 -213 -9 -213 36 0
55 171 26 234 -15 31 -21 36 -29 25z"/>
<path d="M1620 1865 c0 -25 1 -25 85 -25 84 0 85 0 85 25 0 25 -1 25 -85 25
-84 0 -85 0 -85 -25z"/>
<path d="M1335 1825 c-33 -30 -55 -54 -50 -55 6 0 37 25 70 55 33 30 56 54 50
55 -5 0 -37 -25 -70 -55z"/>
<path d="M1990 1873 c0 -5 27 -33 60 -62 65 -57 84 -57 23 0 -61 56 -83 73
-83 62z"/>
<path d="M3232 1845 c-27 -23 -31 -32 -34 -90 -1 -36 -2 -65 0 -65 3 0 46 93
56 124 4 10 9 17 12 14 8 -9 -47 -138 -65 -151 -20 -14 -47 -75 -38 -84 4 -3
24 12 46 33 42 42 81 144 81 210 0 41 -17 44 -58 9z"/>
<path d="M1495 1849 c-10 -15 3 -25 16 -12 7 7 7 13 1 17 -6 3 -14 1 -17 -5z"/>
<path d="M1140 1814 c-30 -19 -62 -39 -70 -44 -8 -5 -12 -12 -8 -15 7 -8 148
75 148 88 0 13 -14 7 -70 -29z"/>
<path d="M1880 1841 c0 -6 5 -13 10 -16 6 -3 10 1 10 9 0 9 -4 16 -10 16 -5 0
-10 -4 -10 -9z"/>
<path d="M2190 1843 c0 -5 17 -19 38 -31 20 -12 52 -31 70 -43 17 -11 32 -16
32 -10 0 6 -26 27 -57 47 -66 42 -83 50 -83 37z"/>
<path d="M1362 1799 c-24 -23 -41 -43 -38 -46 9 -9 97 67 91 78 -8 12 -4 14
-53 -32z"/>
<path d="M1515 1814 c-24 -37 -11 -41 15 -5 12 17 17 31 12 31 -5 0 -17 -12
-27 -26z"/>
<path d="M1534 1801 c-14 -22 -23 -45 -19 -52 5 -7 18 6 36 35 32 50 34 56 19
56 -5 0 -21 -18 -36 -39z"/>
<path d="M1820 1833 c0 -5 13 -28 30 -53 29 -43 29 -44 38 -20 7 19 4 31 -11
52 -19 25 -57 39 -57 21z"/>
<path d="M1980 1832 c0 -14 89 -87 96 -79 6 5 -69 79 -87 85 -5 2 -9 -1 -9 -6z"/>
<path d="M1421 1530 c-160 -280 -171 -304 -171 -351 0 -57 -8 -53 76 -33 24 6
25 5 15 -15 -7 -11 -27 -28 -46 -36 -38 -15 -44 -37 -21 -68 9 -12 12 -32 9
-57 -5 -36 -3 -40 22 -50 29 -11 45 -6 45 15 0 7 11 16 25 19 27 7 32 26 14
54 -10 15 9 83 101 362 102 314 137 440 121 440 -3 0 -64 -140 -135 -310 -71
-171 -134 -317 -140 -325 -6 -8 -26 -18 -43 -21 -32 -6 -33 -5 -33 26 0 34 12
57 250 477 54 95 95 173 90 173 -5 0 -86 -135 -179 -300z m10 -280 c-38 -113
-70 -198 -70 -189 -1 14 -8 15 -41 9 -46 -8 -46 -5 1 18 29 15 39 34 103 199
39 101 72 179 74 175 1 -4 -29 -99 -67 -212z m-104 -227 c11 -14 16 -15 20 -5
4 10 8 9 19 -5 19 -26 17 -43 -6 -43 -11 0 -20 -6 -20 -14 0 -8 -5 -18 -10
-21 -7 -4 -9 2 -4 19 3 15 2 26 -4 26 -5 0 -12 -10 -15 -22 -4 -12 -9 -20 -12
-16 -3 3 -1 17 5 32 7 19 7 33 0 47 -14 25 7 26 27 2z"/>
<path d="M1640 1785 c0 -41 2 -45 25 -45 23 0 25 4 25 45 0 41 -2 45 -25 45
-23 0 -25 -4 -25 -45z"/>
<path d="M1710 1785 c0 -43 1 -45 30 -45 29 0 30 2 30 45 0 43 -1 45 -30 45
-29 0 -30 -2 -30 -45z"/>
<path d="M1796 1784 c-5 -22 -3 -41 3 -47 6 -6 11 -22 11 -35 0 -14 48 -171
106 -350 85 -262 104 -330 95 -344 -18 -28 -13 -47 14 -54 14 -3 25 -12 25
-19 0 -21 16 -26 45 -15 25 10 27 14 21 49 -4 25 -1 44 9 57 22 29 18 53 -12
66 -34 14 -63 38 -63 50 0 5 8 7 18 4 74 -22 72 -23 72 33 0 48 -11 71 -166
344 -91 160 -167 293 -169 295 -1 2 -6 -14 -9 -34z m178 -294 c114 -200 156
-283 156 -307 0 -35 -10 -40 -53 -24 -19 7 -40 48 -107 208 -108 256 -172 419
-160 407 5 -5 79 -133 164 -284z m2 -203 c67 -173 72 -183 107 -200 20 -10 37
-24 37 -30 0 -9 -2 -9 -8 0 -4 6 -25 13 -46 15 l-40 4 -67 203 c-38 112 -65
201 -61 197 4 -4 39 -89 78 -189z m125 -266 c-7 -11 -7 -30 -1 -50 5 -19 5
-31 -1 -31 -5 0 -9 9 -9 20 0 11 -5 20 -11 20 -7 0 -9 -10 -5 -26 5 -17 3 -23
-4 -19 -5 3 -10 13 -10 21 0 8 -9 14 -19 14 -28 0 -32 12 -11 38 13 15 20 18
24 10 4 -10 9 -8 18 5 18 24 42 23 29 -2z"/>
<path d="M1165 1775 c-16 -13 -25 -24 -20 -25 6 0 24 11 40 25 17 13 26 24 20
25 -5 0 -23 -11 -40 -25z"/>
<path d="M1392 1777 l-22 -24 30 0 c32 0 33 2 21 30 -6 17 -8 16 -29 -6z"/>
<path d="M1980 1787 c0 -9 9 -21 21 -27 31 -17 33 -7 4 20 -20 19 -25 20 -25
7z"/>
<path d="M2190 1792 c0 -12 50 -46 56 -39 3 3 -9 15 -25 27 -17 12 -31 17 -31
12z"/>
<path d="M103 1698 c85 -85 99 -104 157 -218 56 -112 68 -129 116 -162 l52
-38 -9 34 c-5 18 -15 78 -23 133 -8 55 -21 115 -30 132 -45 86 -175 191 -251
202 -116 17 -115 18 -12 -83z m116 -21 c29 -29 61 -66 72 -83 34 -50 70 -124
60 -124 -5 0 -13 10 -17 23 -12 41 -95 156 -141 197 -25 22 -41 40 -36 40 6 0
33 -24 62 -53z"/>
<path d="M872 1768 c-6 -6 -12 -22 -12 -34 0 -14 -13 -33 -32 -48 -33 -25 -33
-26 -16 -53 10 -15 23 -26 30 -24 7 3 30 4 51 3 33 -1 37 1 37 23 0 15 10 31
25 41 14 9 25 19 25 23 0 10 -72 46 -87 44 -7 0 -13 3 -13 8 0 12 10 11 49 -2
27 -9 36 -9 48 3 13 13 11 15 -14 15 -15 0 -39 3 -53 7 -16 4 -30 2 -38 -6z
m23 -71 c0 -12 6 -21 13 -19 7 1 12 -9 12 -24 0 -23 -3 -25 -26 -20 -15 4 -32
2 -40 -5 -9 -8 -14 -8 -14 -1 0 6 8 15 17 21 10 5 15 13 11 17 -4 4 -14 1 -23
-6 -9 -7 -18 -10 -21 -7 -3 3 5 13 19 22 14 9 27 26 31 38 6 25 20 15 21 -16z"/>
<path d="M2471 1769 c-13 -5 -33 -7 -45 -3 -20 6 -20 5 -4 -11 14 -15 21 -16
49 -6 40 14 49 14 49 0 0 -5 -4 -8 -9 -4 -8 4 -67 -24 -91 -42 -3 -3 6 -13 20
-23 14 -10 26 -25 26 -32 1 -7 2 -19 3 -25 1 -8 15 -12 39 -11 20 1 43 0 50
-3 7 -2 20 9 30 24 17 27 17 28 -16 53 -19 15 -32 34 -32 48 0 24 -17 46 -34
45 -6 0 -22 -5 -35 -10z m59 -63 c0 -8 12 -21 26 -31 14 -9 23 -19 20 -22 -3
-3 -12 0 -21 7 -9 7 -19 10 -23 6 -4 -4 1 -12 11 -17 9 -6 17 -15 17 -21 0 -7
-5 -7 -14 1 -8 7 -25 9 -39 6 -21 -6 -25 -3 -29 24 -4 24 -2 28 9 20 9 -8 14
-7 18 3 3 8 5 19 4 24 -3 18 1 25 11 19 6 -3 10 -12 10 -19z"/>
<path d="M1000 1720 c0 -17 30 -73 53 -97 20 -22 27 -23 191 -23 94 0 176 4
182 8 20 13 64 84 64 103 0 18 -13 19 -245 19 -164 0 -245 -3 -245 -10z"/>
<path d="M1915 1693 c9 -21 28 -50 42 -65 l27 -28 171 0 c165 0 172 1 192 23
23 24 53 80 53 97 0 7 -82 10 -250 10 l-250 0 15 -37z"/>
<path d="M1622 1698 c3 -22 8 -23 83 -23 75 0 80 1 83 23 3 21 1 22 -83 22
-84 0 -86 -1 -83 -22z"/>
<path d="M1586 1623 c-8 -26 -51 -169 -96 -317 -75 -250 -79 -271 -68 -307 6
-21 13 -39 15 -39 13 0 85 43 88 53 10 26 85 443 84 467 -1 42 -8 13 -52 -228
-42 -227 -43 -233 -72 -252 -40 -26 -43 -26 -50 14 -5 26 15 104 85 340 51
169 90 309 87 312 -3 3 -12 -16 -21 -43z"/>
<path d="M1642 1608 c3 -46 6 -53 26 -56 21 -3 22 0 22 52 0 53 -1 56 -26 56
-24 0 -25 -2 -22 -52z"/>
<path d="M1712 1608 c3 -49 5 -53 28 -53 23 0 25 4 28 53 l3 52 -31 0 -31 0 3
-52z"/>
<path d="M2979 1623 c-25 -76 8 -262 46 -254 13 3 8 60 -6 77 -6 7 -12 48 -14
91 l-4 78 10 -70 c13 -97 13 -97 31 -25 15 63 15 65 -8 102 -13 21 -28 38 -33
38 -5 0 -15 -16 -22 -37z"/>
<path d="M986 1620 c-10 -17 -16 -33 -14 -34 12 -10 94 -24 101 -17 5 5 -12
12 -37 15 -42 7 -45 9 -35 27 18 34 5 42 -15 9z"/>
<path d="M1790 1638 c0 -9 39 -145 86 -303 66 -221 84 -295 79 -321 -3 -19 -8
-34 -11 -34 -4 0 -45 24 -63 37 -2 1 -23 105 -47 230 -23 126 -42 210 -43 188
0 -22 17 -128 37 -235 l37 -195 40 -22 c22 -13 43 -23 46 -23 3 0 11 18 18 40
11 37 6 57 -79 342 -50 167 -93 305 -96 307 -2 2 -4 -3 -4 -11z"/>
<path d="M3107 1633 c-42 -47 -76 -176 -59 -223 7 -18 2 -37 -19 -79 -16 -31
-31 -76 -34 -101 -6 -41 -5 -46 13 -46 18 0 23 13 37 88 10 49 20 86 23 84 3
-3 -6 -58 -18 -121 -27 -132 -24 -145 34 -121 42 17 89 85 111 160 20 65 19
76 -4 76 -36 0 -78 -46 -84 -92 -2 -24 -8 -52 -12 -63 -15 -39 14 -1 50 66 19
35 35 57 35 48 0 -20 -75 -144 -86 -143 -5 1 -17 -12 -26 -27 -30 -49 -30 -32
-1 24 23 44 28 65 28 130 0 62 -4 81 -17 91 -10 7 -13 17 -8 26 4 8 16 58 26
110 10 52 20 88 21 79 2 -9 -5 -56 -16 -105 -23 -107 -14 -139 20 -73 19 35
24 60 24 119 0 41 -5 83 -11 93 -10 17 -11 17 -27 0z"/>
<path d="M2380 1634 c0 -3 5 -14 10 -24 9 -17 5 -20 -36 -26 -25 -3 -42 -10
-37 -15 6 -6 88 7 101 16 6 5 -21 55 -30 55 -4 0 -8 -3 -8 -6z"/>
<path d="M3203 1583 c-36 -23 -41 -32 -46 -72 -2 -25 -8 -55 -12 -66 -15 -39
14 0 50 66 19 35 35 57 35 49 0 -22 -71 -140 -85 -140 -10 0 -45 -50 -45 -64
0 -19 43 -1 70 31 53 60 107 202 82 217 -5 3 -27 -6 -49 -21z"/>
<path d="M1072 1545 c-34 -30 -48 -35 -82 -33 -47 2 -60 -10 -60 -58 0 -18 -8
-38 -20 -49 -24 -22 -25 -29 -3 -55 20 -23 34 -25 51 -8 7 7 24 12 40 13 23 0
27 4 25 27 -1 23 14 42 90 113 51 47 85 85 77 85 -9 0 -34 -18 -55 -41 -55
-56 -116 -104 -109 -85 4 11 0 16 -14 16 -12 0 -23 4 -27 10 -3 5 -13 6 -22 3
-10 -4 -14 -2 -10 4 4 7 23 9 45 6 35 -5 44 -1 91 41 60 53 45 63 -17 11z
m-98 -111 c5 -20 10 -23 20 -15 10 8 13 4 13 -20 0 -24 -4 -30 -18 -26 -10 3
-27 -2 -39 -10 -22 -16 -22 -16 -5 11 19 29 11 34 -17 9 -10 -9 -18 -12 -18
-6 0 5 9 18 20 28 11 10 20 26 20 37 0 27 17 22 24 -8z"/>
<path d="M1169 1510 c-69 -77 -108 -155 -82 -164 8 -3 32 -6 54 -6 38 0 41 2
125 116 47 64 83 118 81 121 -3 2 -45 -48 -93 -112 -83 -111 -89 -116 -117
-111 -16 3 -33 6 -38 6 -18 0 23 76 64 120 73 78 91 100 79 100 -6 0 -39 -31
-73 -70z"/>
<path d="M1262 1426 c-107 -148 -114 -155 -150 -158 -37 -3 -37 -3 -37 -48 0
-25 -6 -55 -13 -67 -17 -31 -15 -38 15 -58 25 -17 27 -17 43 5 10 13 22 20 29
16 21 -14 41 13 29 38 -9 21 4 45 103 202 62 99 119 189 127 202 13 21 13 22
-10 22 -19 0 -45 -29 -136 -154z m106 102 c-8 -13 -50 -79 -93 -148 -43 -69
-83 -130 -89 -136 -6 -6 -24 -8 -41 -5 l-30 6 30 13 c21 9 61 57 129 153 55
76 102 139 104 139 2 0 -2 -10 -10 -22z m-224 -343 c11 15 12 15 12 -2 1 -10
3 -25 5 -33 2 -9 -3 -15 -13 -15 -10 0 -23 -6 -30 -13 -6 -6 -16 -12 -22 -12
-6 0 -5 5 2 12 7 7 12 19 12 28 0 10 -6 8 -20 -10 -22 -29 -28 -14 -6 16 8 10
13 30 10 44 l-5 25 21 -28 c20 -25 24 -26 34 -12z"/>
<path d="M1986 1568 c4 -7 61 -97 126 -200 103 -164 117 -190 108 -212 -10
-27 10 -54 31 -40 7 4 19 -3 29 -16 16 -22 18 -22 43 -5 30 20 32 27 15 58 -7
12 -13 42 -13 67 0 45 0 45 -37 48 -27 2 -42 11 -61 35 -79 105 -137 187 -133
187 3 0 31 -34 62 -75 53 -70 59 -75 94 -75 67 0 71 5 52 57 -17 46 -144 194
-156 182 -3 -3 25 -39 62 -80 38 -41 73 -88 79 -105 11 -31 10 -32 -19 -38
-17 -3 -34 -6 -38 -6 -4 0 -46 52 -94 115 -82 109 -88 115 -122 115 -25 0 -33
-3 -28 -12z m148 -168 c59 -81 108 -139 124 -146 l27 -12 -29 -1 c-23 -1 -27
-4 -21 -18 12 -33 -11 0 -107 152 -144 229 -143 234 6 25z m171 -200 c-4 -11
0 -29 9 -42 23 -32 19 -48 -4 -18 -14 18 -20 20 -20 10 0 -9 5 -21 12 -28 8
-8 8 -12 1 -12 -6 0 -16 6 -22 14 -7 8 -21 12 -31 9 -23 -6 -25 0 -9 28 5 11
14 17 19 14 5 -3 17 6 26 20 20 30 28 32 19 5z"/>
<path d="M2285 1496 c73 -68 90 -89 90 -112 0 -25 4 -29 27 -29 16 -1 33 -6
40 -13 18 -18 31 -14 52 14 18 25 18 26 -7 52 -18 19 -24 35 -21 52 7 39 -9
54 -56 52 -34 -2 -48 3 -82 33 -61 52 -77 43 -18 -10 31 -27 60 -45 75 -45 14
0 25 -4 25 -10 0 -5 -9 -10 -19 -10 -11 0 -21 -5 -23 -12 -2 -6 -36 19 -75 55
-39 37 -77 67 -84 67 -8 0 27 -38 76 -84z m163 -38 c2 -20 12 -44 23 -53 10
-10 19 -23 19 -28 0 -6 -9 -2 -20 8 -27 24 -38 11 -14 -17 10 -13 12 -17 4
-10 -8 6 -26 12 -41 12 -22 0 -27 4 -25 25 0 15 6 23 13 21 18 -7 36 54 20 72
-10 13 -9 14 3 10 9 -2 16 -19 18 -40z"/>
<path d="M593 1504 c-33 -77 -42 -129 -43 -241 0 -109 6 -132 44 -178 l25 -30
-15 50 c-19 62 -29 236 -17 290 7 31 9 11 10 -90 0 -84 6 -149 16 -184 8 -30
13 -60 11 -66 -3 -7 2 -18 11 -25 13 -11 15 -7 16 26 0 22 6 57 13 79 10 32
10 47 -1 78 -7 22 -18 89 -24 150 -6 62 -14 130 -18 152 l-7 40 -21 -51z"/>
<path d="M1630 1515 c0 -24 2 -25 75 -25 73 0 75 1 75 25 0 24 -2 25 -75 25
-73 0 -75 -1 -75 -25z"/>
<path d="M1642 1428 c3 -46 6 -53 26 -56 21 -3 22 0 22 52 0 53 -1 56 -26 56
-24 0 -25 -2 -22 -52z"/>
<path d="M1714 1466 c-3 -8 -4 -31 -2 -52 3 -34 6 -39 28 -39 23 0 25 4 28 53
3 50 2 52 -23 52 -14 0 -28 -6 -31 -14z"/>
<path d="M2931 1373 c-14 -49 -14 -119 0 -184 l11 -51 21 20 c17 17 18 24 8
36 -7 8 -14 50 -16 93 -4 83 0 76 11 -22 l7 -60 17 60 c17 59 17 61 -5 100
-30 52 -42 54 -54 8z"/>
<path d="M51 1366 c2 -2 44 -29 94 -60 115 -72 146 -102 212 -202 48 -74 56
-82 92 -88 21 -3 78 -26 126 -49 l86 -44 -6 26 c-4 14 -32 61 -63 105 -114
158 -248 283 -327 305 -37 10 -224 16 -214 7z m276 -96 c64 -49 203 -240 176
-240 -4 0 -21 24 -36 54 -33 62 -118 161 -171 197 -20 13 -36 28 -36 33 0 5 6
4 13 -1 6 -5 31 -24 54 -43z"/>
<path d="M1630 1335 c0 -24 2 -25 75 -25 73 0 75 1 75 25 0 24 -2 25 -75 25
-73 0 -75 -1 -75 -25z"/>
<path d="M758 1292 c-52 -56 -88 -169 -88 -280 0 -72 18 -107 91 -177 34 -33
73 -77 87 -98 14 -20 26 -36 28 -34 2 1 -3 21 -11 42 -8 22 -14 46 -15 54 0 8
-17 49 -37 90 -35 69 -38 84 -41 171 -2 52 1 131 6 175 5 44 8 81 7 82 -1 2
-13 -10 -27 -25z m-28 -190 c-7 -55 -7 -102 -1 -144 11 -65 7 -90 -6 -42 -10
37 -10 188 0 238 14 64 17 34 7 -52z"/>
<path d="M1600 1315 c0 -17 -50 -318 -55 -335 -3 -9 -18 -24 -35 -33 -35 -21
-37 -35 -10 -70 12 -14 20 -40 20 -61 0 -31 3 -36 25 -37 14 -1 31 -2 37 -3 7
-1 14 8 17 19 2 11 11 25 20 33 14 11 13 12 -9 10 -16 -2 -26 -11 -31 -28 l-7
-25 -1 28 c-1 33 -18 36 -24 5 -3 -16 -5 -12 -6 11 0 20 -10 44 -23 58 -17 19
-19 26 -9 36 10 9 11 9 6 -5 -5 -12 2 -21 26 -34 24 -12 34 -13 37 -5 3 8 8 9
16 1 10 -8 13 3 15 48 1 31 5 85 10 119 4 35 4 68 0 74 -6 11 -10 -10 -25
-145 -4 -32 -10 -53 -14 -46 -6 9 -13 9 -29 1 -25 -14 -27 -4 -4 21 20 22 74
340 61 360 -4 7 -8 8 -8 3z"/>
<path d="M1650 1245 c0 -48 2 -55 20 -55 18 0 20 7 20 55 0 48 -2 55 -20 55
-18 0 -20 -7 -20 -55z"/>
<path d="M1712 1248 c3 -46 6 -53 26 -56 21 -3 22 0 22 52 0 53 -1 56 -26 56
-24 0 -25 -2 -22 -52z"/>
<path d="M1789 1296 c-3 -3 7 -77 21 -166 19 -113 32 -166 45 -180 19 -21 13
-42 -7 -22 -17 17 -26 15 -31 -5 -2 -10 -7 18 -11 62 -12 124 -27 148 -20 32
3 -55 9 -109 14 -120 5 -12 9 -17 10 -12 0 6 4 4 9 -3 13 -21 75 13 66 36 -5
14 -4 14 6 5 10 -10 8 -17 -9 -36 -13 -14 -23 -38 -23 -58 -1 -23 -3 -27 -6
-11 -6 31 -23 28 -24 -5 l-1 -28 -7 25 c-5 17 -15 26 -31 28 -22 2 -23 1 -9
-10 9 -8 19 -22 21 -33 3 -14 11 -19 28 -17 43 4 50 10 50 42 0 17 9 43 20 58
25 33 20 52 -19 75 -27 16 -29 23 -51 164 -23 151 -32 188 -41 179z"/>
<path d="M4170 1250 l0 -30 4645 0 4645 0 0 30 0 30 -4645 0 -4645 0 0 -30z"/>
<path d="M1622 1225 c0 -16 2 -22 5 -12 2 9 2 23 0 30 -3 6 -5 -1 -5 -18z"/>
<path d="M2851 1155 c-24 -64 -37 -152 -27 -189 5 -22 9 -24 24 -15 14 9 17
26 17 97 0 54 5 95 13 107 13 19 13 19 8 -5 -4 -14 -8 -52 -11 -85 -5 -53 -4
-56 6 -30 7 17 21 42 31 58 18 25 18 31 5 70 -20 62 -41 59 -66 -8z"/>
<path d="M1630 1155 c0 -26 1 -26 73 -23 66 3 72 5 75 26 3 21 0 22 -72 22
-75 0 -76 0 -76 -25z"/>
<path d="M2958 1133 c-40 -42 -62 -82 -73 -130 -5 -26 -3 -33 9 -33 10 0 30
31 56 87 22 47 43 84 46 81 3 -3 -15 -47 -40 -97 -47 -92 -60 -145 -31 -121
52 43 104 172 91 225 -8 33 -16 32 -58 -12z"/>
<path d="M933 1123 c-29 -20 -53 -42 -53 -49 0 -18 7 -18 38 4 50 35 57 35 25
1 -32 -34 -42 -59 -24 -59 5 0 27 7 50 15 46 16 46 3 0 -20 -25 -14 -41 -45
-22 -45 10 0 123 74 123 81 0 4 -7 12 -15 19 -11 9 -22 9 -46 1 -51 -18 -55
-13 -22 22 25 25 30 36 22 50 -13 22 -15 22 -76 -20z"/>
<path d="M2508 1139 c-11 -6 -18 -22 -18 -39 0 -23 9 -35 37 -55 49 -33 80
-33 95 1 14 31 5 50 -42 82 -37 24 -47 26 -72 11z m90 -74 c5 -22 -19 -18 -52
8 -18 15 -26 28 -22 36 10 15 69 -20 74 -44z"/>
<path d="M1650 1043 c0 -91 7 -123 26 -123 11 0 14 22 14 100 0 93 -1 100 -20
100 -18 0 -20 -7 -20 -77z"/>
<path d="M1710 1020 c0 -91 2 -100 19 -100 20 0 31 49 31 146 0 51 -1 54 -25
54 l-25 0 0 -100z"/>
<path d="M3068 1092 c-29 -13 -44 -31 -66 -74 -16 -32 -25 -58 -21 -58 4 0 30
26 58 57 28 31 51 52 51 47 0 -15 -110 -125 -119 -120 -4 3 -23 -10 -41 -29
-38 -39 -26 -46 35 -21 77 32 204 218 147 216 -4 0 -24 -8 -44 -18z"/>
<path d="M2426 1021 c-23 -26 -14 -52 29 -85 42 -32 70 -33 90 -2 13 20 14 29
5 46 -9 16 -15 19 -25 10 -7 -6 -11 -20 -8 -30 8 -28 -11 -25 -49 9 l-33 30
28 10 c15 6 27 15 27 21 0 17 -46 11 -64 -9z"/>
<path d="M1041 983 c-29 -27 -50 -39 -60 -35 -15 5 -15 4 0 -18 16 -24 42 -40
37 -22 -4 12 83 82 94 76 16 -10 8 13 -9 27 -16 13 -23 10 -62 -28z"/>
<path d="M2757 1002 c-50 -55 -99 -242 -64 -242 20 0 39 33 31 54 -6 17 34
162 42 153 3 -3 -1 -25 -9 -49 -33 -100 -31 -107 12 -45 32 45 40 64 35 85
-15 70 -20 74 -47 44z"/>
<path d="M282 993 c-51 -18 -46 -26 23 -42 106 -26 192 -78 294 -177 53 -52
101 -94 107 -94 6 0 46 -9 89 -20 43 -11 80 -18 82 -16 9 9 -68 116 -120 169
-95 95 -212 162 -325 186 -68 14 -97 13 -150 -6z m277 -86 c67 -38 221 -171
210 -182 -3 -2 -39 29 -82 70 -57 56 -100 86 -169 120 -51 26 -79 44 -63 40
17 -3 63 -25 104 -48z"/>
<path d="M1081 916 c-35 -36 -49 -56 -41 -61 7 -4 24 5 41 21 33 32 34 31 14
-25 -13 -37 -13 -42 1 -48 17 -6 104 72 104 94 0 20 -11 16 -43 -14 -20 -18
-28 -22 -24 -11 13 37 18 86 10 91 -5 4 -33 -18 -62 -47z"/>
<path d="M2357 942 c-18 -20 -22 -33 -8 -29 15 4 91 -63 91 -81 1 -14 4 -13
20 7 20 24 27 47 11 37 -11 -7 -93 63 -85 75 10 16 -13 9 -29 -9z"/>
<path d="M2865 948 c-48 -26 -125 -122 -125 -155 0 -33 34 -7 80 62 28 41 53
75 56 75 7 0 1 -9 -58 -98 -59 -87 -62 -123 -8 -75 42 37 76 101 86 161 7 44
2 49 -31 30z"/>
<path d="M863 862 c3 -35 19 -105 37 -155 31 -92 32 -93 88 -125 68 -40 139
-98 130 -107 -3 -4 -35 15 -70 40 -73 55 -121 80 -198 107 -136 46 -286 63
-324 35 -16 -12 -7 -23 102 -120 66 -59 124 -107 127 -107 4 0 5 23 3 50 -3
27 -4 50 -2 50 2 0 82 -44 178 -98 157 -89 268 -137 363 -157 l31 -6 -5 60
c-5 47 -2 66 12 87 9 14 13 29 8 33 -4 4 -27 22 -50 40 -23 17 -43 41 -45 53
-2 16 -18 26 -68 43 -149 50 -195 91 -271 240 l-52 100 6 -63z m-46 -278 c73
-29 215 -105 209 -112 -2 -2 -37 15 -78 37 -90 49 -164 79 -243 97 l-60 14 52
-4 c29 -3 83 -17 120 -32z"/>
<path d="M1634 895 c-11 -27 10 -36 77 -33 56 3 64 5 64 23 0 18 -8 20 -68 23
-54 2 -68 0 -73 -13z"/>
<path d="M1215 870 c8 -13 -54 -90 -72 -90 -20 0 -15 -13 11 -32 23 -17 24
-17 30 5 8 29 64 89 76 82 19 -12 10 7 -12 26 -25 20 -43 25 -33 9z"/>
<path d="M2923 869 c-18 -5 -35 -18 -38 -29 -4 -11 -18 -34 -32 -50 -40 -49
-22 -44 46 11 35 28 62 46 60 41 -8 -20 -105 -93 -130 -98 -14 -3 -39 -17 -55
-30 l-29 -23 41 -1 c34 0 53 8 95 40 57 43 119 114 119 136 0 16 -29 17 -77 3z"/>
<path d="M2275 861 c-3 -5 17 -33 44 -63 l49 -53 31 29 c30 28 41 56 23 56 -5
0 -17 -9 -27 -20 -19 -21 -19 -20 -60 20 -43 42 -50 46 -60 31z"/>
<path d="M1660 809 c0 -53 15 -79 45 -79 30 0 45 26 45 80 0 34 -3 41 -17 38
-13 -2 -19 -14 -21 -41 -4 -46 -22 -39 -22 9 0 24 -5 34 -15 34 -11 0 -15 -11
-15 -41z"/>
<path d="M2607 806 c-54 -71 -102 -185 -84 -202 13 -14 44 17 45 44 1 28 59
158 67 150 2 -2 -9 -30 -25 -63 -34 -69 -39 -105 -9 -58 11 17 31 39 45 48 22
14 25 22 22 63 -4 59 -25 66 -61 18z"/>
<path d="M2211 809 c-17 -10 -31 -23 -31 -29 0 -13 72 -110 81 -110 3 0 18 9
33 21 31 25 36 68 7 76 -11 3 -22 15 -25 28 -8 32 -28 37 -65 14z m39 -35 c0
-9 -5 -14 -12 -12 -18 6 -21 28 -4 28 9 0 16 -7 16 -16z m36 -35 c3 -6 1 -16
-5 -22 -9 -9 -14 -8 -21 3 -9 15 -4 30 10 30 5 0 12 -5 16 -11z"/>
<path d="M1265 804 c-11 -11 -14 -25 -10 -38 15 -48 17 -66 7 -66 -6 0 -16 9
-22 20 -6 11 -15 20 -20 20 -17 0 -11 -36 8 -53 47 -43 98 2 68 60 -21 42 -10
47 33 15 20 -14 38 -28 40 -29 3 -2 -5 -24 -17 -48 -25 -52 -27 -65 -9 -65 7
0 23 21 35 46 18 35 27 45 44 42 36 -5 30 16 -12 40 -21 12 -43 22 -49 22 -6
0 -21 11 -35 25 -29 29 -39 31 -61 9z"/>
<path d="M2090 769 c0 -11 5 -17 10 -14 6 3 10 13 10 21 0 8 -4 14 -10 14 -5
0 -10 -9 -10 -21z"/>
<path d="M2135 758 c-4 -11 1 -32 14 -53 12 -20 21 -43 21 -51 0 -29 -29 -13
-54 31 -26 44 -36 52 -49 39 -10 -10 44 -104 66 -115 20 -11 63 10 73 36 5 13
-21 73 -50 110 -13 18 -15 19 -21 3z"/>
<path d="M2714 756 c-54 -24 -134 -107 -134 -140 0 -18 49 16 96 66 30 33 57
59 59 57 2 -3 -27 -38 -64 -79 -63 -70 -90 -110 -73 -110 4 0 28 16 54 35 50
37 94 101 104 153 7 35 3 37 -42 18z"/>
<path d="M1436 654 c-15 -37 -26 -67 -24 -69 5 -3 88 -35 93 -35 3 0 5 6 5 14
0 8 -13 19 -30 24 -37 14 -32 45 6 36 17 -4 24 -2 24 9 0 8 -9 17 -21 20 -12
3 -18 10 -14 17 6 10 22 8 63 -7 6 -3 12 2 12 10 0 11 -64 47 -84 47 -2 0 -16
-30 -30 -66z"/>
<path d="M1974 688 l-21 -10 25 -64 c15 -38 31 -64 40 -64 10 0 13 8 9 26 -4
20 2 32 21 49 23 20 25 25 14 49 -13 28 -48 34 -88 14z m59 -25 c9 -9 -13 -34
-24 -27 -14 8 -11 34 4 34 8 0 17 -3 20 -7z"/>
<path d="M2453 663 c-47 -46 -80 -96 -86 -133 -3 -19 -8 -43 -12 -52 -5 -12
-2 -18 8 -18 16 0 27 20 27 49 0 21 79 146 87 138 3 -3 -6 -21 -20 -39 -13
-18 -33 -49 -42 -68 l-18 -35 40 36 c22 20 45 38 52 40 6 2 14 28 18 57 7 62
-7 69 -54 25z"/>
<path d="M1558 613 c-12 -49 -13 -70 -5 -75 15 -9 27 0 27 22 0 34 18 30 24
-5 5 -22 13 -35 23 -35 11 0 14 7 10 27 -3 18 2 36 16 55 21 28 21 29 2 47
-11 11 -34 22 -50 25 l-31 7 -16 -68z m70 14 c2 -12 -3 -17 -17 -17 -23 0 -24
1 -15 25 8 19 28 15 32 -8z"/>
<path d="M2770 671 c-14 -3 -45 -28 -69 -54 -41 -44 -42 -47 -16 -37 15 6 48
24 73 41 24 16 47 28 49 25 12 -12 -110 -78 -167 -90 -14 -3 -34 -12 -45 -20
-19 -14 -17 -15 30 -16 60 0 129 36 190 99 33 35 37 43 25 51 -16 11 -32 11
-70 1z"/>
<path d="M1687 654 c13 -6 7 -101 -8 -120 -11 -14 -1 -24 25 -24 19 0 21 6 21
62 1 39 5 63 13 66 22 7 1 22 -31 21 -18 0 -27 -3 -20 -5z"/>
<path d="M1771 651 c-18 -11 -18 -105 -1 -126 15 -18 51 -20 68 -3 16 16 16
110 0 126 -14 14 -47 15 -67 3z m49 -66 c0 -33 -4 -45 -15 -45 -11 0 -15 12
-15 45 0 33 4 45 15 45 11 0 15 -12 15 -45z"/>
<path d="M2520 584 c-34 -15 -130 -100 -130 -116 0 -21 39 -4 89 40 89 75 102
80 30 11 -93 -89 -104 -128 -21 -71 47 32 77 67 97 116 15 35 15 36 -7 36 -13
-1 -39 -8 -58 -16z"/>
<path d="M2262 506 c-54 -40 -112 -107 -112 -129 0 -5 12 -7 28 -5 15 2 26 8
25 15 -3 15 104 133 120 133 6 0 -15 -28 -48 -61 -33 -34 -55 -59 -50 -57 101
42 117 56 130 116 6 28 4 32 -13 32 -11 0 -47 -20 -80 -44z"/>
<path d="M2525 463 c-55 -50 -43 -52 48 -6 27 13 52 22 55 19 9 -10 -120 -63
-167 -69 -51 -6 -72 -28 -39 -40 31 -11 115 17 186 62 65 43 77 65 40 75 -49
13 -73 5 -123 -41z"/>
<path d="M2105 448 c-28 -15 -28 -15 -20 -28 5 -8 11 -8 21 1 8 6 17 9 20 6 3
-3 -3 -10 -14 -16 -22 -12 -20 -51 2 -51 13 0 46 61 46 85 0 18 -27 19 -55 3z"/>
<path d="M2320 434 c-25 -9 -60 -27 -79 -41 -29 -22 -31 -27 -17 -35 12 -7 36
1 91 32 41 22 75 37 75 33 0 -5 -38 -28 -85 -53 -87 -46 -112 -70 -72 -70 57
1 153 65 183 123 14 27 14 27 -18 27 -18 -1 -53 -8 -78 -16z"/>
<path d="M1351 402 c-12 -22 -14 -64 -5 -97 4 -17 14 -20 67 -20 44 -1 74 -7
104 -23 51 -27 53 -27 53 -4 0 9 9 32 20 50 l20 33 -75 35 c-42 19 -98 38
-124 41 -42 5 -50 3 -60 -15z"/>
<path d="M1945 401 c-64 -23 -135 -59 -135 -69 0 -4 7 -16 15 -26 8 -11 15
-30 15 -43 0 -28 3 -28 59 0 33 16 64 22 108 22 l62 0 7 43 c9 62 -7 92 -48
92 -18 -1 -55 -9 -83 -19z"/>
<path d="M2364 343 c-10 -9 -37 -24 -59 -34 -49 -23 -25 -25 60 -5 66 16 84
13 39 -5 -16 -7 -65 -13 -109 -14 -127 -4 -125 -3 -81 -26 31 -17 48 -19 85
-14 56 9 127 32 159 53 19 12 21 17 10 28 -25 23 -82 33 -104 17z"/>
<path d="M2100 326 c0 -25 1 -25 35 -10 39 16 53 18 40 5 -6 -5 -27 -14 -47
-20 -34 -11 -59 -44 -44 -58 14 -14 136 74 136 98 0 5 -27 9 -60 9 -57 0 -60
-1 -60 -24z"/>
<path d="M1643 326 c-52 -24 -70 -87 -38 -133 34 -48 145 -55 191 -12 32 30
33 88 1 125 -28 33 -104 43 -154 20z"/>
<path d="M1370 260 c-13 -9 -11 -13 10 -30 14 -11 45 -27 68 -37 40 -15 46
-15 70 -1 41 25 37 35 -23 57 -61 23 -102 26 -125 11z"/>
<path d="M1922 249 c-57 -22 -61 -32 -20 -57 24 -14 30 -14 70 1 57 22 95 56
76 68 -21 14 -69 9 -126 -12z"/>
<path d="M2135 248 c-11 -7 -36 -18 -55 -25 -33 -13 -30 -14 50 -10 49 3 77 1
65 -3 -11 -5 -54 -9 -96 -9 -48 -1 -82 -6 -94 -15 -19 -13 -17 -15 19 -21 73
-14 247 29 230 56 -7 13 -67 39 -86 39 -7 0 -22 -6 -33 -12z"/>
<path d="M1540 184 c-42 -42 -141 -104 -166 -104 -13 0 -24 -5 -24 -11 0 -16
57 -69 75 -69 36 0 190 95 201 124 3 8 -6 25 -20 39 -14 15 -26 31 -26 37 0
16 -13 11 -40 -16z"/>
<path d="M1812 171 l-34 -36 40 -36 c45 -40 151 -99 177 -99 17 0 75 55 75 71
0 5 -11 9 -23 9 -23 0 -107 51 -172 103 l-30 25 -33 -37z"/>
</g>
</svg>
